<?xml version="1.0" encoding="UTF-8" standalone="no"?>
<svg width="296.926mm" height="209.973mm"
 viewBox="0 0 3507 2480"
 xmlns="http://www.w3.org/2000/svg" xmlns:xlink="http://www.w3.org/1999/xlink"  version="1.2" baseProfile="tiny">
<desc>Generated with Qt</desc>
<defs>
</defs>
<g fill="none" stroke="black" stroke-width="1" fill-rule="evenodd" stroke-linecap="square" stroke-linejoin="bevel" >

<g fill="none" stroke="#000000" stroke-opacity="1" stroke-width="1" stroke-linecap="square" stroke-linejoin="bevel" transform="matrix(1,0,0,1,0,0)"
font-family="MS Shell Dlg 2" font-size="34.375" font-weight="400" font-style="normal" 
>
</g>

<g fill="none" stroke="#000000" stroke-opacity="1" stroke-width="1" stroke-linecap="square" stroke-linejoin="bevel" transform="matrix(11.8081,0,0,11.8081,0,0)"
font-family="MS Shell Dlg 2" font-size="34.375" font-weight="400" font-style="normal" 
>
</g>

<g fill="#ffffff" fill-opacity="1" stroke="none" transform="matrix(0.999751,0,0,0.999751,0,0)"
font-family="MS Shell Dlg 2" font-size="34.375" font-weight="400" font-style="normal" 
>
<path vector-effect="none" fill-rule="evenodd" d="M-1,-1 L3508.87,-1 L3508.87,2481.31 L-1,2481.31 L-1,-1"/>
</g>

<g fill="none" stroke="#000000" stroke-opacity="1" stroke-width="1" stroke-linecap="square" stroke-linejoin="bevel" transform="matrix(11.8081,0,0,11.8081,0,0)"
font-family="MS Shell Dlg 2" font-size="34.375" font-weight="400" font-style="normal" 
>
</g>

<g fill="none" stroke="#000000" stroke-opacity="1" stroke-width="1" stroke-linecap="square" stroke-linejoin="bevel" transform="matrix(11.8081,0,0,11.8081,0,0)"
font-family="MS Shell Dlg 2" font-size="34.375" font-weight="400" font-style="normal" 
>
</g>

<g fill="none" stroke="#000000" stroke-opacity="1" stroke-width="1" stroke-linecap="square" stroke-linejoin="bevel" transform="matrix(11.8081,0,0,11.8081,0,0)"
font-family="MS Shell Dlg 2" font-size="34.375" font-weight="400" font-style="normal" 
>
</g>

<g fill="none" stroke="#000000" stroke-opacity="1" stroke-width="1" stroke-linecap="square" stroke-linejoin="bevel" transform="matrix(11.8081,0,0,11.8081,0,0)"
font-family="MS Shell Dlg 2" font-size="34.375" font-weight="400" font-style="normal" 
>
</g>

<g fill="#ffffff" fill-opacity="1" stroke="none" transform="matrix(11.8081,0,0,11.8081,0,0)"
font-family="MS Shell Dlg 2" font-size="34.375" font-weight="400" font-style="normal" 
>
<path vector-effect="non-scaling-stroke" fill-rule="evenodd" d="M0,0 L297,0 L297,210 L0,210 L0,0"/>
</g>

<g fill="none" stroke="#000000" stroke-opacity="1" stroke-width="1" stroke-linecap="square" stroke-linejoin="bevel" transform="matrix(11.8081,0,0,11.8081,0,0)"
font-family="MS Shell Dlg 2" font-size="34.375" font-weight="400" font-style="normal" 
>
</g>

<g fill="#000000" fill-opacity="0" stroke="none" transform="matrix(0.999751,0,0,0.999751,0,0)"
font-family="MS Shell Dlg 2" font-size="34.375" font-weight="400" font-style="normal" 
>
<path vector-effect="non-scaling-stroke" fill-rule="evenodd" d="M0,0 L3508,0 L3508,2480 L0,2480 L0,0"/>
</g>

<g fill="#31688e" fill-opacity="1" stroke="#000000" stroke-opacity="1" stroke-width="3.07087" stroke-linecap="square" stroke-linejoin="bevel" transform="matrix(0.999751,0,0,0.999751,0,0)"
font-family="MS Shell Dlg 2" font-size="34.375" font-weight="400" font-style="normal" 
>
<path vector-effect="none" fill-rule="evenodd" d="M1000.58,1271.37 L993.801,1282.88 L990.246,1292.15 L985.925,1296.93 L980.592,1297.83 L979.122,1294.29 L976.643,1293.76 L973.159,1297.17 L968.34,1294.58 L971.25,1289.29 L972.322,1283.53 L974.362,1278.11 L970.15,1270.66 L969.462,1262.05 L975.498,1251.23 L979.233,1252.61 L987.333,1255.59 L998.85,1266.21 L1000.58,1271.37"/>
<path vector-effect="none" fill-rule="evenodd" d="M1849.44,879.441 L1848.46,883.15 L1833.46,884.219 L1833.39,882.144 L1820.41,879.692 L1821.91,874.35 L1827.98,878.586 L1836.06,877.87 L1843.93,878.762 L1843.86,880.95 L1849.44,879.441"/>
<path vector-effect="none" fill-rule="evenodd" d="M1726.86,843.733 L1734.64,842.639 L1731.49,852.511 L1733.26,856.399 L1731.43,862.855 L1723.23,858.126 L1717.88,856.772 L1703.09,850.392 L1704.23,843.953 L1716.39,845.099 L1726.86,843.733"/>
<path vector-effect="none" fill-rule="evenodd" d="M1453.62,505.598 L1450.84,512.688 L1459.48,520.209 L1447.51,528.672 L1421.91,536.326 L1414.23,538.37 L1403.2,536.719 L1379.93,533.178 L1389.18,528.249 L1371.72,522.817 L1387.08,520.67 L1387.29,517.426 L1370.14,514.862 L1377.19,507.712 L1390.12,506.094 L1401.83,513.531 L1415.49,507.558 L1425.53,510.656 L1439.93,504.824 L1453.62,505.598"/>
<path vector-effect="none" fill-rule="evenodd" d="M131.572,497.438 L121.015,504.196 L122.708,506.913 L132.234,498.996 L152.334,500.616 L154.212,510.838 L139.266,515.631 L123.91,516.771 L108.745,527.596 L102.17,529.913 L94.6577,529.58 L93.5504,525.7 L86.8234,522.465 L91.7255,517.668 L85.7647,515.864 L74.1506,517.294 L75.166,513.439 L82.9335,509.359 L69.1083,511.965 L65.3454,517.144 L53.783,521.835 L118.838,478.567 L126.095,486.72 L131.572,497.438"/>
<path vector-effect="none" fill-rule="evenodd" d="M162.009,458.297 L150.632,458.929 L162.552,451.859 L164.293,451.428 L170.9,451.449 L177.29,454.399 L174.262,455.812 L162.009,458.297"/>
<path vector-effect="none" fill-rule="evenodd" d="M2293.14,376.524 L2317.87,381.579 L2320.79,385.261 L2285.23,388.803 L2282.71,376.94 L2287.11,375.951 L2293.14,376.524"/>
<path vector-effect="none" fill-rule="evenodd" d="M2210.94,361.757 L2223.17,359.935 L2241.91,364.028 L2268.78,372.178 L2277.57,380.076 L2263.64,381.193 L2240.79,378.616 L2224.98,375.249 L2211.91,369.069 L2200.43,367.401 L2210.94,361.757"/>
<path vector-effect="none" fill-rule="evenodd" d="M1763.38,369.811 L1754.77,374.452 L1734.89,375.481 L1713.93,374.025 L1712.05,371.642 L1702.08,371.492 L1693.58,367.59 L1714.14,365.258 L1724.67,367.265 L1730.83,364.769 L1748.83,366.848 L1763.38,369.811"/>
<path vector-effect="none" fill-rule="evenodd" d="M1880.96,365.327 L1893.34,363.823 L1903.63,363.723 L1906.52,365.953 L1909.11,363.97 L1914.6,362.618 L1925.97,364.417 L1924.22,365.68 L1915.79,366.781 L1910.05,367.417 L1910.01,368.8 L1902.87,370.205 L1894.12,368.194 L1896.35,365.579 L1880.96,365.327"/>
<path vector-effect="none" fill-rule="evenodd" d="M2983.22,456.164 L2985.97,451.859 L2997.89,458.929 L2990.1,459.459 L2983.22,456.164"/>
<path vector-effect="none" fill-rule="evenodd" d="M2645.19,432.991 L2646.67,429.027 L2654.82,428.102 L2671.34,431.931 L2676.16,434.575 L2664.63,434.645 L2647.29,433.523 L2645.19,432.991"/>
<path vector-effect="none" fill-rule="evenodd" d="M2677.86,413.378 L2700.91,415.947 L2698.72,419.841 L2685.27,418.958 L2665,415.073 L2661.52,411.901 L2677.86,413.378"/>
<path vector-effect="none" fill-rule="evenodd" d="M2595.58,405.684 L2615.71,406.108 L2651,411.259 L2657,418.547 L2628.92,418.274 L2620.04,420.607 L2595.39,414.203 L2588.8,407.499 L2595.58,405.684"/>
<path vector-effect="none" fill-rule="evenodd" d="M1751.23,389.424 L1736.32,393.231 L1723.04,391.065 L1727.35,388.674 L1722.25,385.738 L1736.45,383.914 L1740.29,387.343 L1751.23,389.424"/>
<path vector-effect="none" fill-rule="evenodd" d="M1981.86,429.179 L1994.89,420.449 L1990.1,415.973 L2003.42,410.803 L2023.46,404.573 L2046.52,402.773 L2056.23,399.229 L2069.37,397.995 L2077.56,401.759 L2075.08,404.749 L2052.69,409.552 L2033.37,414.211 L2016.26,423.605 L2010.82,433.361 L2004.22,443.097 L2010.37,451.603 L2029.93,460.09 L2025.73,461.003 L1999.16,459.652 L1994.77,455.048 L1979.17,452.281 L1975.3,446.735 L1982.15,444.542 L1979.01,438.998 L1989.56,430.404 L1981.86,429.179"/>
<path vector-effect="none" fill-rule="evenodd" d="M1679.42,373.092 L1681.44,370.155 L1691.51,369.858 L1700.96,372.855 L1725.68,379.405 L1708.87,382.938 L1706.54,389.676 L1700.64,391.429 L1698.87,399.233 L1690.17,399.604 L1673.53,393.837 L1679.47,390.52 L1668.27,387.845 L1653.25,380.18 L1646.82,373.282 L1665.21,370.203 L1669.55,373.213 L1679.42,373.092"/>
<path vector-effect="none" fill-rule="evenodd" d="M1663.08,809.249 L1668.03,805.38 L1674.51,814.244 L1673.73,830.785 L1669.03,829.995 L1664.98,834.176 L1660.97,830.855 L1660.04,815.765 L1657.45,808.625 L1663.08,809.249"/>
<path vector-effect="none" fill-rule="evenodd" d="M2915.04,652.151 L2928.61,663.714 L2938.64,675.577 L2952.82,687.794 L2979.75,709.365 L2962.27,705.333 L2969.6,723.016 L2988.31,735.611 L2994.15,744.223 L2981.41,736.793 L2981.64,746.334 L2972.55,735.991 L2965.04,724.016 L2954.12,710.798 L2949.29,701.569 L2936.7,685.311 L2921.18,673.418 L2907.78,656.974 L2911.54,651.462 L2902.8,645.925 L2905.42,644.249 L2915.04,652.151"/>
<path vector-effect="none" fill-rule="evenodd" d="M1496.84,856.856 L1492.57,860.114 L1487.15,858.349 L1481.74,859.731 L1483.64,849.91 L1482.93,842.199 L1478.35,841.043 L1476.05,836.295 L1477.18,828.098 L1481.45,823.556 L1482.36,818.502 L1484.78,810.989 L1484.75,805.7 L1482.9,801.221 L1482.62,797.019 L1483.49,788.151 L1479.6,782.756 L1494.19,773.791 L1506.4,776.031 L1519.89,775.952 L1530.54,778.073 L1538.9,777.422 L1555.14,777.833 L1560.39,770.389 L1562.44,745.74 L1552.37,732.81 L1545.2,726.592 L1530.33,721.871 L1529.56,712.938 L1542.22,710.278 L1558.52,713.425 L1555.58,699.604 L1564.67,704.835 L1587.17,695.333 L1589.97,685.381 L1598.31,682.934 L1605.94,680.545 L1605.94,680.545 L1610.79,677.221 L1618.63,659.496 L1631.34,654.476 L1639.16,654.814 L1640.88,652.278 L1648.69,651.628 L1650.57,654.268 L1656.62,648.369 L1654.23,643.894 L1653.43,637.141 L1649.31,630.553 L1648.38,618.471 L1649.73,615.292 L1652.14,611.766 L1660.13,611.037 L1663.11,607.801 L1670.17,604.498 L1670.31,610.524 L1667.88,614.351 L1669.21,617.646 L1674.3,619.43 L1672.38,623.882 L1669.55,622.599 L1663.48,631.118 L1666.38,636.899 L1666.84,641.498 L1676.44,644.276 L1676.64,648.514 L1685.99,646.271 L1690.98,643.003 L1701.92,647.715 L1706.67,651.523 L1712.75,648.012 L1726.77,642.493 L1738.05,638.464 L1747.57,640.475 L1748.62,643.381 L1757.63,643.531 L1759.08,638.29 L1771.37,634.435 L1768.01,624.477 L1767.07,615.599 L1770.47,608.224 L1778.41,604.225 L1787.02,612.984 L1794.3,612.756 L1794.54,603.757 L1794.42,596.871 L1791.35,598.34 L1784.94,594.201 L1783.05,587.531 L1793.79,584.306 L1804.72,582.627 L1814.76,584.538 L1823.9,584.196 L1823.9,584.196 L1832.69,577.816 L1822.27,572.348 L1822.27,572.348 L1806.41,573.262 L1791.62,577.479 L1777.59,579.911 L1771.42,573.63 L1762.26,569.862 L1762.41,558.609 L1756.54,548.38 L1759.57,541.815 L1766.14,534.769 L1783.33,522.692 L1788.51,520.377 L1786.68,515.708 L1773.99,510.512 L1760.18,513.623 L1753.37,521.323 L1755.85,528.121 L1743.73,537.101 L1728.52,546.776 L1724.3,562.759 L1731.61,570.821 L1740.93,577.196 L1734.46,590.239 L1725.46,592.956 L1724.28,612.575 L1720.29,623.611 L1709.02,622.471 L1704.7,631.856 L1694.04,632.402 L1690.16,621.217 L1681.4,607.873 L1673.21,591.372 L1666.67,584.26 L1649.85,597.688 L1637.96,600.422 L1625.23,594.487 L1621.54,582.025 L1617.74,555.589 L1625.44,548.3 L1647.66,538.846 L1663.65,527.315 L1677.66,511.909 L1695.19,490.904 L1707.77,482.833 L1727.84,469.538 L1744.53,464.945 L1757.75,465.501 L1767.93,456.872 L1782.43,457.33 L1796.07,455.267 L1822.9,462.869 L1813.43,465.666 L1824.01,472.27 L1824.01,472.27 L1831.24,468.607 L1846.3,474.984 L1869.16,477.507 L1903.89,489.594 L1911.96,494.718 L1914.99,501.938 L1907.69,507.672 L1895,510.593 L1855.37,502.286 L1849.67,503.67 L1865.49,511.684 L1867.47,516.79 L1871.19,528.112 L1883.1,531.511 L1890.61,534.411 L1890.12,528.999 L1883.61,524.221 L1887.75,520.026 L1910.32,526.928 L1916.6,524.221 L1908.31,516.122 L1924.2,505.376 L1932.09,506.006 L1941.24,509.831 L1943.35,502.321 L1934.08,495.85 L1935.69,489.399 L1927.19,482.752 L1951.28,486.184 L1958.35,492.204 L1948.48,493.536 L1950.84,499.562 L1958.78,503.287 L1970.66,500.926 L1969.89,494.013 L1984.87,488.881 L2009.14,479.697 L2015.49,480.221 L2010.51,486.706 L2021.15,487.825 L2025.26,484.164 L2040.36,483.869 L2050.17,479.448 L2062.74,485.879 L2068.25,478.811 L2056.52,472.673 L2058.82,469.195 L2084.27,472.383 L2097.29,475.689 L2133.75,487.875 L2135.87,482.274 L2124.27,476.648 L2122.68,474.401 L2112.37,473.363 L2112.02,468.367 L2102.78,460.211 L2100.49,456.887 L2108.99,447.558 L2107.82,438.302 L2112.16,436.314 L2134.46,438.982 L2140.14,444.638 L2138.5,452.959 L2145.63,456.253 L2153.05,463.523 L2160.61,477.959 L2173.72,484.493 L2174.72,491.661 L2167.84,507.083 L2178.32,508.696 L2179.28,504.76 L2186.7,501.961 L2185.57,496.588 L2189.45,491.444 L2180.78,485.338 L2179.99,478.296 L2170.59,477.422 L2164.81,471.537 L2164.13,461.014 L2148.07,452.565 L2157.16,445.648 L2150.03,438.415 L2153.7,438.185 L2161.98,443.817 L2166.06,453.717 L2175.83,455.604 L2166.89,448.178 L2176.93,444.158 L2192.64,443.618 L2211.58,449.45 L2197.96,440.944 L2188.41,430.197 L2199.94,428.178 L2218.63,428.618 L2233.93,427.31 L2222.98,422.11 L2225.48,415.629 L2233.8,415.358 L2243.33,410.504 L2261.51,409.206 L2261.09,406.55 L2279.43,405.653 L2287.91,407.826 L2298.48,402.698 L2312.13,402.857 L2309.12,398.734 L2311.03,394.709 L2323.09,390.871 L2339.41,393.897 L2332.59,396.218 L2350.9,397.668 L2358.97,402.38 L2362.63,400.053 L2384.11,400.18 L2406.89,404.859 L2417.64,408.484 L2422.43,413.555 L2417.88,416.46 L2404.86,421.941 L2402.66,424.887 L2413.69,426.281 L2427.89,428.8 L2432.5,426.91 L2443.96,433.34 L2444.26,430.731 L2454.56,429.149 L2481.05,430.803 L2488.65,435.507 L2522.64,437.009 L2513.37,429.327 L2531.83,431.081 L2543.95,431.026 L2563.25,436.327 L2575.13,442.817 L2575.89,447.092 L2595.68,455.189 L2613.2,459.399 L2607.35,448.564 L2625.78,453.192 L2635.6,450.423 L2654.89,453.592 L2656.89,450.703 L2671.62,452.146 L2653.19,442.639 L2657.3,438.241 L2736.69,444.843 L2752.11,450.926 L2783.96,458.825 L2813.03,456.862 L2831.26,458.57 L2844.17,462.875 L2854.28,470.542 L2868.46,473.546 L2876.1,471.385 L2889.92,471.109 L2908.12,473.18 L2921.61,472.011 L2949.67,481.44 L2954.64,478.036 L2937.93,471.272 L2934.35,466.601 L2964.4,469.538 L2980.06,468.909 L3011.09,473.941 L3029.69,478.567 L3094.74,521.835 L3094.77,521.895 L3090.86,526.771 L3078.71,525.956 L3094.73,531.885 L3112.72,541.115 L3120.91,544.146 L3128.35,548.814 L3130.22,551.811 L3110.7,549.346 L3097.82,557.883 L3091.8,559.209 L3088.75,567.23 L3084.85,574.27 L3088.11,579.503 L3065.55,571.544 L3053.54,580.578 L3044.32,576.297 L3041.71,581.235 L3027.93,579.653 L3034.02,587.256 L3036.22,598.504 L3041.89,603.223 L3055.18,605.844 L3073,622.962 L3064.95,623.4 L3071.64,633.305 L3080.92,638.421 L3070.98,644.506 L3081.57,658.167 L3070.41,661.095 L3079.36,673.33 L3076.06,684.599 L3064.87,676.261 L3044.12,658.69 L3012.45,632.173 L2999.79,615.787 L2999.98,608.777 L2994.51,603.305 L3005.69,600.692 L3005.21,586.054 L3006.65,574.192 L3011.49,565.046 L2998.63,549.022 L2989.3,549.975 L2995.63,559.325 L2988.44,571.88 L2964.51,557.829 L2946.54,561.695 L2946.5,580.928 L2961.77,588.022 L2945.1,591.051 L2932.52,592.246 L2924.09,583.865 L2908.33,582.111 L2903.37,587.795 L2873.93,585.804 L2848.05,589.239 L2841.19,612.023 L2831.39,639.915 L2847.37,641.416 L2858.53,648.889 L2869.95,651.547 L2870.68,645.578 L2881.62,646.352 L2906.85,659.523 L2916.03,669.758 L2918.7,681.83 L2929.52,696.326 L2939.94,715.845 L2937.86,733.606 L2940.43,742.126 L2936.61,756.506 L2932.48,770.805 L2930.65,778.138 L2921.77,785.431 L2915.51,785.592 L2905.46,779.55 L2897.46,788.649 L2898.35,792.791 L2898.35,792.791 L2898.35,792.791 L2898.35,792.791 L2895.64,790.612 L2895.64,790.612 L2891.79,784.292 L2896.74,783.957 L2889.17,769.286 L2879.88,758.677 L2885.65,754.309 L2899.13,756.498 L2898,744.481 L2892.38,730.989 L2893.12,726.492 L2890.57,715.459 L2876.97,719.07 L2871.82,723.907 L2856.93,723.893 L2845.12,712.382 L2827.56,703.697 L2807.98,699.8 L2795.88,687.889 L2787.06,680.447 L2779.59,675.243 L2764.44,663.089 L2752.72,658.665 L2735.86,655.094 L2723.65,655.419 L2713.6,657.581 L2710.27,663.556 L2717.57,666.416 L2722.54,673.071 L2720.02,676.943 L2720.33,689.794 L2724.02,695.142 L2715.45,702.839 L2700.87,698.238 L2690,699.253 L2682.34,695.174 L2675.71,693.86 L2666.98,702.441 L2655.46,704.461 L2648.36,707.487 L2634.97,705.499 L2626.05,705.626 L2616.49,699.393 L2603.54,693.544 L2592.94,691.942 L2581.7,693.531 L2573.92,695.786 L2557.27,690.672 L2550.09,681.585 L2537.01,678.475 L2527.51,677.059 L2513.89,672.067 L2511.28,684.6 L2519.18,691.743 L2514.43,700.217 L2498.84,697.155 L2488.97,696.717 L2479.52,691.037 L2469.39,690.858 L2459.07,687.132 L2447.43,692.844 L2434.23,703.332 L2425.02,705.447 L2421.7,706.451 L2413.02,698.991 L2401.35,700.621 L2394.79,695.453 L2386.93,693.093 L2378.94,686.076 L2372.6,683.895 L2360.31,687.011 L2343.83,680.03 L2341.69,686.373 L2305.93,655.746 L2289.45,646.503 L2291.02,642.763 L2273,654.039 L2264.31,654.723 L2262.05,648.192 L2248.15,644.121 L2239.73,647.025 L2231.13,634.681 L2213.31,632.123 L2207.19,637.05 L2185.83,641.444 L2182.52,644.388 L2149.24,648.543 L2146.52,652.625 L2156.46,660.839 L2148.58,663.964 L2151.57,667.243 L2144.6,673.116 L2163.04,681.43 L2162.69,687.17 L2149.03,686.647 L2147.47,690.249 L2133.07,683.962 L2117.98,684.205 L2109.45,689.323 L2096.54,684.415 L2072.86,676.036 L2058.07,676.349 L2042.13,689.524 L2043.36,698.405 L2031.55,691.351 L2027.34,704.729 L2030.81,707.219 L2027.49,716.488 L2037.81,724.805 L2044.99,724.462 L2053.27,732.672 L2053.81,739.006 L2059.31,740.999 L2056.55,748.315 L2047.41,750.35 L2040.43,763.118 L2052.16,774.886 L2053.03,783.253 L2067.28,797.912 L2067.28,797.913 L2062.29,802.937 L2061.21,806.111 L2056.53,805.259 L2047.96,797.685 L2045.03,797.267 L2038.06,794.38 L2033.9,789.271 L2023.94,786.668 L2018.21,788.622 L2015.98,786.309 L2001.06,780.349 L1985.86,778.338 L1976.96,776.215 L1976.01,777.682 L1961.27,767.197 L1949.02,762.524 L1939.12,755.254 L1946,753.278 L1952.31,742.953 L1945.87,738.076 L1959.43,733.052 L1958.64,730.363 L1950.2,732.345 L1942.53,733.329 L1936.72,737.311 L1927.61,737.96 L1919.91,742.554 L1921.54,749.162 L1921.8,750.23 L1927.17,753.211 L1937.18,752.469 L1936.01,756.88 L1925.48,759.023 L1913.11,766.187 L1907.15,763.667 L1908.41,757.851 L1896.96,754.231 L1898.34,751.861 L1907.18,747.756 L1905.43,746.271 L1903.85,744.93 L1887.97,741.813 L1886.57,737.218 L1877.67,738.735 L1875.02,745.524 L1868.67,754.653 L1869.36,757.843 L1864.91,760.506 L1861.71,759.346 L1860.96,774.299 L1856.43,779.443 L1853.89,788.336 L1858.05,795.439 L1849.12,793.769 L1839.26,797.688 L1844.59,800.988 L1842.35,808.796 L1840.08,810.196 L1833.83,809.841 L1828.38,808.661 L1816.36,811.907 L1824.17,818.93 L1819.17,820.968 L1813.46,820.981 L1807.42,814.544 L1805.77,817.286 L1808.76,824.754 L1814.45,830.627 L1810.83,833.371 L1817.09,839.144 L1822.54,842.779 L1823.34,849.864 L1813.47,846.54 L1817.08,852.938 L1810.61,854.256 L1815.47,865.335 L1808.57,865.493 L1799.6,860.03 L1794.91,849.99 L1792.43,841.647 L1787.93,835.887 L1782.08,828.747 L1781.09,825.183 L1779.27,824.308 L1778.84,821.556 L1772.83,817.358 L1771.45,811.406 L1771.59,802.891 L1772.64,799.02 L1770.77,797.057 L1770.76,797.057 L1768.56,796.091 L1765.37,792.025 L1760.79,789.555 L1760.79,789.555 L1750.92,784.952 L1744.71,780.477 L1735.23,776.785 L1726.12,767.654 L1728.07,766.727 L1723.14,761.518 L1722.66,757.34 L1716.12,755.389 L1713.43,760.73 L1710.21,756.587 L1710.15,752.294 L1710.49,752.094 L1712.63,750.974 L1704.61,749.174 L1696.81,753.559 L1697.72,759.699 L1696.71,763.226 L1700.36,769.536 L1710.16,775.785 L1715.88,786.058 L1727.8,796.09 L1735.74,796.013 L1738.41,798.767 L1735.74,801.251 L1745.17,805.759 L1752.93,809.534 L1762.19,816.048 L1763.43,818.382 L1761.86,822.86 L1755.74,817.022 L1746.7,814.966 L1742.96,823.052 L1750.69,827.69 L1749.92,834.223 L1745.67,834.965 L1740.83,845.714 L1736.58,846.68 L1736.39,842.847 L1738.08,836.126 L1740.15,833.45 L1735.67,826.196 L1732.14,819.888 L1727.79,818.331 L1724.43,812.938 L1717.73,810.668 L1713.02,805.651 L1705.44,804.843 L1697.19,799.213 L1687.49,791.105 L1680.27,783.939 L1676.53,771.661 L1671.48,770.219 L1663.16,766.127 L1658.62,767.802 L1653.05,773.558 L1648.91,774.468 L1640.03,781.484 L1620.09,778.121 L1605.5,782.152 L1604.45,789.641 L1605.09,796.875 L1595.56,805.179 L1582.52,807.817 L1581.63,812.017 L1575.36,818.944 L1571.4,829.125 L1575.41,836.281 L1569.44,841.872 L1567.18,850.023 L1559.35,852.523 L1551.93,862.175 L1538.72,862.367 L1528.8,862.129 L1522.2,866.564 L1518.13,871.311 L1513.05,870.269 L1509.28,866.024 L1506.49,858.801 L1496.84,856.856"/>
<path vector-effect="none" fill-rule="evenodd" d="M1662.61,787.711 L1668.91,782.962 L1671.09,793.632 L1668.14,803.259 L1663.42,800.72 L1660.75,792.336 L1662.61,787.711"/>
<path vector-effect="none" fill-rule="evenodd" d="M1516.19,650.201 L1517.41,658.76 L1509.84,669.501 L1492.66,676.632 L1479.27,674.806 L1487.69,662.225 L1483.5,650.036 L1496.74,640.69 L1504.05,635.134 L1511.85,634.644 L1521.51,641.999 L1516.19,650.201"/>
<path vector-effect="none" fill-rule="evenodd" d="M1545.17,655.744 L1545.18,655.746 L1546.7,648.797 L1540.6,641.447 L1540.46,641.28 L1529.22,639.185 L1527.11,635.966 L1530.65,630.662 L1527.72,627.399 L1522.54,633.003 L1522.43,621.596 L1518.04,615.586 L1521.85,603.46 L1529.21,594 L1536.37,594.921 L1547.24,593.942 L1537.27,606.57 L1546.56,604.966 L1556.49,605.028 L1553.98,614.586 L1545.55,625.154 L1555.06,625.908 L1555.77,627.151 L1563.88,641.161 L1570.25,643.075 L1576,656.698 L1578.7,661.44 L1590.16,663.729 L1589.08,671.432 L1584.27,674.971 L1588.12,681.227 L1579.54,687.574 L1566.71,687.462 L1550.32,690.8 L1545.88,688.41 L1539.42,694.102 L1530.54,692.723 L1523.64,697.368 L1518.59,694.938 L1533.04,682.189 L1541.65,679.574 L1541.58,679.564 L1526.73,677.549 L1524.18,672.742 L1534.21,669.004 L1529.2,662.521 L1531.22,654.66 L1545.17,655.744"/>
<path vector-effect="none" fill-rule="evenodd" d="M1688.02,623.527 L1691.45,629.459 L1686.67,639.077 L1676.46,632.365 L1674.81,627.447 L1688.02,623.527"/>
</g>

<g fill="#35b779" fill-opacity="1" stroke="#000000" stroke-opacity="1" stroke-width="3.07087" stroke-linecap="square" stroke-linejoin="bevel" transform="matrix(0.999751,0,0,0.999751,0,0)"
font-family="MS Shell Dlg 2" font-size="34.375" font-weight="400" font-style="normal" 
>
<path vector-effect="none" fill-rule="evenodd" d="M3279.07,1871.15 L3292.86,1864.65 L3303.99,1858.2 L3315.67,1848.91 L3321.93,1845.76 L3328.68,1838.79 L3340.11,1833.02 L3338.44,1838.33 L3336.86,1843.48 L3347.93,1838.43 L3346.88,1843.7 L3342.84,1848.94 L3334.55,1854.71 L3320.66,1863.88 L3311.49,1868.88 L3310.35,1874.85 L3302.49,1875.01 L3290.11,1879.68 L3280.78,1887.79 L3264.77,1900.29 L3252.38,1905.81 L3244.5,1909.32 L3235.64,1909.06 L3232.62,1905 L3222.59,1904.13 L3224.64,1899.6 L3237.4,1890.43 L3259.76,1878.21 L3268.1,1875.88 L3279.07,1871.15"/>
<path vector-effect="none" fill-rule="evenodd" d="M3081.04,1836.95 L3086.62,1837.79 L3077.65,1852.59 L3071.3,1856.88 L3063.44,1866.88 L3062.26,1863.48 L3049.33,1872.14 L3047.71,1871.47 L3041.8,1871.09 L3042.78,1860.45 L3046.83,1852.23 L3047.95,1841.37 L3051.8,1835.65 L3057.79,1836.75 L3064.91,1841.06 L3071.55,1839.35 L3081.04,1836.95"/>
<path vector-effect="none" fill-rule="evenodd" d="M3385.87,1827.67 L3376.98,1834.41 L3365.4,1842.96 L3353.69,1847.93 L3354.48,1844.65 L3351.62,1842.86 L3365.26,1832.59 L3366.96,1825.71 L3359.5,1820.71 L3362.97,1816.17 L3373.43,1811.8 L3381.7,1802.15 L3386.54,1794.04 L3387.7,1785.63 L3389.36,1783.42 L3387.59,1778.23 L3386.06,1767.11 L3386.86,1758.21 L3391.32,1757.22 L3392.98,1764.21 L3399.2,1767.47 L3395.37,1778.66 L3394.57,1791.88 L3400.25,1783.31 L3402.78,1786.73 L3398.19,1796.23 L3403.82,1800.32 L3410.14,1801.32 L3419.26,1796.53 L3423.54,1797.98 L3413.44,1809.11 L3405.16,1816.42 L3397.49,1816.16 L3392.03,1819.97 L3389.08,1825.35 L3385.87,1827.67"/>
<path vector-effect="none" fill-rule="evenodd" d="M3552.23,1525.87 L3550.77,1532.01 L3543.05,1535.11 L3535.39,1537.76 L3535.11,1533.07 L3541.22,1530.48 L3544.86,1529.79 L3552.23,1525.87"/>
<path vector-effect="none" fill-rule="evenodd" d="M-401.569,1525.29 L-401.503,1531.34 L-402.249,1532.01 L-403.705,1525.87 L-401.569,1525.29"/>
<path vector-effect="none" fill-rule="evenodd" d="M2910.44,1729.1 L2896.74,1735.56 L2886.45,1738.46 L2881.83,1745.06 L2875.9,1750.17 L2866.85,1750.48 L2859.79,1751.6 L2851.4,1749.3 L2843.29,1750.67 L2835.84,1751.25 L2826.94,1757.96 L2824.11,1757.39 L2817.43,1760.95 L2810.8,1764.94 L2803.35,1764.45 L2796.33,1764.44 L2788.32,1756.41 L2783.58,1754.02 L2786.51,1746.81 L2792.37,1745.1 L2795.22,1742.24 L2796.49,1737.72 L2800.89,1728.96 L2802.28,1721.5 L2800.87,1708.78 L2801.39,1701.59 L2804.04,1694.42 L2802.18,1686.23 L2802.96,1682.53 L2799.6,1677.52 L2800.89,1667.66 L2797.24,1657.7 L2797.03,1652.33 L2800.46,1657.78 L2799.57,1646.1 L2804.09,1649.75 L2806.13,1654.62 L2807.47,1648.18 L2804.33,1638.27 L2804.14,1634.31 L2802.41,1630.54 L2805.04,1623.26 L2807.87,1620.17 L2810.55,1613.87 L2810.74,1606.51 L2816.85,1597.46 L2815.96,1607.04 L2822.11,1598.39 L2831.69,1594.18 L2837.94,1588.81 L2847.08,1584.19 L2852.21,1583.21 L2854.94,1584.76 L2864.36,1580.07 L2871.22,1578.68 L2873.37,1575.92 L2876.46,1574.77 L2882.44,1575.07 L2894.57,1571.38 L2901.51,1565.79 L2905.5,1559.07 L2913.04,1552.68 L2914.41,1547.66 L2915.87,1540.82 L2925.33,1530.12 L2928.13,1540.99 L2933.23,1538.48 L2930.32,1532.53 L2934.76,1526.42 L2939.17,1529.15 L2942.03,1519.57 L2948.99,1513.38 L2952.38,1508.42 L2958.23,1506.27 L2958.9,1502.76 L2963.53,1504.23 L2964.17,1501.06 L2969.27,1499.26 L2974.83,1497.56 L2982.16,1503.34 L2987.17,1510.79 L2994.05,1510.88 L3000.87,1512.06 L2999.58,1505.15 L3006.29,1495.06 L3011.71,1491.77 L3010.4,1488.62 L3016.11,1481.44 L3023.34,1477 L3028.81,1478.49 L3038.38,1476.12 L3038.94,1469.69 L3031.31,1465.55 L3037.4,1463.72 L3044.37,1466.84 L3049.65,1472 L3058.56,1475.22 L3061.87,1473.95 L3068.24,1477.81 L3075.14,1474.21 L3079.15,1475.31 L3082.03,1472.89 L3086.33,1479.11 L3082.5,1485.85 L3077.62,1490.93 L3073.77,1491.35 L3074.33,1496.38 L3070.16,1502.67 L3065.29,1508.86 L3065.51,1512.41 L3073.1,1519.36 L3080.87,1523.4 L3085.76,1527.73 L3092.33,1535.19 L3095.42,1535.17 L3100.56,1538.4 L3101.48,1542.28 L3111.11,1546.55 L3119.19,1542.25 L3122.65,1535.49 L3125.93,1529.92 L3128.57,1523.02 L3133.67,1513 L3133.15,1506.92 L3134.53,1503.26 L3134.37,1496.05 L3137.2,1486.57 L3139.67,1484.02 L3138.52,1479.81 L3142.05,1473.14 L3145,1466.23 L3145.71,1462.64 L3150.35,1457.92 L3152.76,1464.08 L3152.56,1471.98 L3155.12,1473.5 L3154.9,1478.78 L3158.04,1485.19 L3157.84,1492.31 L3156.76,1496.88 L3159.15,1506.75 L3166.99,1502.01 L3169.77,1507.34 L3174.21,1512.25 L3172.1,1517.83 L3172.44,1528.62 L3172.88,1534.9 L3175.34,1536.44 L3176.14,1547.19 L3173.72,1553.72 L3175.46,1562.25 L3185.89,1568.83 L3192.3,1574.81 L3198.42,1580.28 L3196.32,1583.33 L3200.79,1591.22 L3201.88,1604.84 L3206.87,1602.08 L3209.98,1607.53 L3213.1,1605.6 L3211.69,1618.93 L3217.37,1626.66 L3221.09,1631.46 L3226.63,1641.65 L3226.56,1651.76 L3224.52,1658.94 L3221.14,1666.73 L3222.45,1677.42 L3217.62,1688.56 L3213.47,1694.39 L3205.98,1705.62 L3203.11,1712.83 L3197.01,1721.86 L3187.07,1733.31 L3176.32,1739.49 L3167.76,1749.24 L3161.18,1755.46 L3152.58,1766.31 L3145.3,1772.58 L3137.7,1781.98 L3131.66,1790.63 L3130,1794.6 L3121.62,1798.95 L3109.77,1799.41 L3097.33,1804.55 L3089.82,1809.41 L3080.49,1814.78 L3075.13,1809.25 L3070.06,1807.04 L3075.29,1800.5 L3068.33,1802.87 L3054.22,1811.95 L3047.21,1808.55 L3042.45,1806.57 L3037.04,1805.67 L3028.99,1802.05 L3026.37,1794.32 L3029.32,1784.78 L3030.05,1778.44 L3027.41,1773.34 L3018.08,1771.83 L3024.41,1765.73 L3026.21,1756.39 L3017.06,1765.1 L3006.66,1767.4 L3015.37,1760.45 L3020.27,1753.19 L3027.09,1747.03 L3030.32,1737.71 L3017.05,1748.44 L3008.57,1752.74 L3000.02,1762.75 L2994.17,1757.57 L2997.47,1750.9 L2994.82,1741.77 L2991.24,1737.06 L2994.44,1734.15 L2983.95,1726.52 L2976.64,1726.16 L2968.83,1720.04 L2949.36,1721.23 L2933.9,1725.73 L2920.23,1729.94 L2910.44,1729.1"/>
<path vector-effect="none" fill-rule="evenodd" d="M3381.02,1588.95 L3387.98,1596.76 L3392.14,1602.54 L3387.21,1605.56 L3382.12,1602.16 L3375.79,1596.5 L3370.45,1589.83 L3365.41,1580.96 L3364.94,1576.69 L3369.6,1576.87 L3374.66,1581.15 L3378.41,1585.43 L3381.02,1588.95"/>
<path vector-effect="none" fill-rule="evenodd" d="M3527.28,1543.96 L3530.51,1541.89 L3533.39,1545.52 L3529.91,1552.09 L3522.68,1553.82 L3517.04,1552.26 L3517.37,1546.73 L3522.68,1542.4 L3527.28,1543.96"/>
<path vector-effect="none" fill-rule="evenodd" d="M3408.17,1520.86 L3407.32,1517.38 L3409.02,1507.74 L3413.53,1511.61 L3413.23,1521.75 L3410.61,1520.17 L3408.17,1520.86"/>
<path vector-effect="none" fill-rule="evenodd" d="M3412.24,1523.66 L3417.55,1530.89 L3413.56,1532.55 L3411.1,1527.04 L3412.24,1523.66"/>
<path vector-effect="none" fill-rule="evenodd" d="M3343.39,1424.6 L3345.61,1428.59 L3345.83,1431.12 L3337.66,1425.78 L3332.02,1421.26 L3328.23,1417.07 L3329.99,1415.79 L3334.83,1418.81 L3343.39,1424.6"/>
<path vector-effect="none" fill-rule="evenodd" d="M3354.36,1447.92 L3350.02,1448.2 L3343.38,1446.92 L3341.28,1444.99 L3342.53,1439.99 L3349.62,1441.97 L3352.93,1444.61 L3354.36,1447.92"/>
<path vector-effect="none" fill-rule="evenodd" d="M3363.92,1444.48 L3361.99,1446.8 L3354.98,1435.89 L3353.44,1428.37 L3357.21,1428.37 L3360.16,1438.44 L3363.92,1444.48"/>
<path vector-effect="none" fill-rule="evenodd" d="M3316.79,1412.03 L3320.86,1416.14 L3318.59,1416.86 L3313.98,1413.99 L3309.86,1408.82 L3310.59,1406.72 L3316.79,1412.03"/>
<path vector-effect="none" fill-rule="evenodd" d="M3291.98,1390.87 L3295.14,1393.73 L3299.94,1401.7 L3304.85,1405.97 L3303.02,1409.5 L3299.81,1410.76 L3295.4,1405.92 L3291.14,1397.93 L3289.42,1388.34 L3291.04,1387.13 L3291.98,1390.87"/>
<path vector-effect="none" fill-rule="evenodd" d="M3253.16,1397.17 L3246.87,1400.23 L3240.96,1403.18 L3235.07,1403.16 L3226.24,1399.51 L3220.15,1396 L3221.33,1392.1 L3231.15,1393.94 L3237.29,1392.96 L3239.36,1386.92 L3240.98,1386.61 L3241.61,1393.29 L3248.01,1392.33 L3251.43,1388.02 L3257.91,1383.54 L3257.14,1376.12 L3263.81,1375.88 L3265.93,1377.95 L3265.27,1384.93 L3261.04,1392.61 L3255.15,1393.64 L3253.16,1397.17"/>
<path vector-effect="none" fill-rule="evenodd" d="M3269.74,1369.73 L3273.74,1373.76 L3274.68,1380.3 L3271,1383.65 L3269.36,1376.23 L3267.05,1371.36 L3262.24,1367.24 L3256.18,1361.87 L3248.33,1358.17 L3251.54,1355.13 L3257.39,1358.66 L3261.05,1361.42 L3265.57,1364.44 L3269.74,1369.73"/>
<path vector-effect="none" fill-rule="evenodd" d="M3367.45,1455.59 L3369.99,1459.92 L3362.28,1459.84 L3359.04,1452.09 L3365.28,1455.14 L3367.45,1455.59"/>
<path vector-effect="none" fill-rule="evenodd" d="M3141.04,1356.39 L3159.95,1365.06 L3180.12,1372.27 L3187.42,1378.71 L3193.23,1385.04 L3194.45,1392.45 L3212.41,1400.23 L3214.62,1406.91 L3204.31,1408.26 L3206.11,1416.65 L3215.3,1424.9 L3221.25,1438.25 L3227.64,1437.83 L3226.63,1443.41 L3234.95,1445.54 L3231.37,1447.92 L3242.54,1453.21 L3240.89,1456.85 L3233.47,1457.73 L3231.12,1454.47 L3221.78,1453.05 L3210.82,1451.16 L3203.06,1443.13 L3197.46,1436.21 L3192.71,1425.2 L3178.72,1419.69 L3169.04,1423.28 L3161.91,1427.44 L3162.49,1436.72 L3153.37,1441.04 L3147.37,1438.94 L3135.97,1438.42 L3139.02,1397.4 L3141.04,1356.39"/>
</g>

<g fill="#20908d" fill-opacity="1" stroke="#000000" stroke-opacity="1" stroke-width="3.07087" stroke-linecap="square" stroke-linejoin="bevel" transform="matrix(0.999751,0,0,0.999751,0,0)"
font-family="MS Shell Dlg 2" font-size="34.375" font-weight="400" font-style="normal" 
>
<path vector-effect="none" fill-rule="evenodd" d="M892.194,1188.26 L898.633,1186.63 L900.933,1187.07 L900.049,1196.44 L890.747,1197.83 L888.807,1196.69 L892.176,1193.23 L892.194,1188.26"/>
<path vector-effect="none" fill-rule="evenodd" d="M-159.094,1044.11 L-159.6,1047.04 L-161.198,1048.28 L-164.294,1045.99 L-163.502,1045.07 L-161.534,1043.84 L-159.094,1044.11"/>
<path vector-effect="none" fill-rule="evenodd" d="M-146.052,1050.37 L-145.338,1051.18 L-143.194,1055.34 L-143.958,1056.07 L-144.699,1055.91 L-148.385,1055.46 L-149.083,1052.61 L-149.385,1052.11 L-146.052,1050.37"/>
<path vector-effect="none" fill-rule="evenodd" d="M728.909,1006.41 L732.085,1006.92 L734.363,1017.36 L733.424,1024.67 L730.679,1025.29 L728.916,1018.04 L725.378,1014.4 L728.909,1006.41"/>
<path vector-effect="none" fill-rule="evenodd" d="M736.964,983.388 L744.513,989.05 L741.208,997.995 L739.478,996.382 L740.724,989.805 L736.736,984.833 L736.964,983.388"/>
<path vector-effect="none" fill-rule="evenodd" d="M723.608,986.533 L728.843,985.527 L735.886,985.904 L735.656,989.176 L723.57,991.189 L723.608,986.533"/>
<path vector-effect="none" fill-rule="evenodd" d="M332.598,648.14 L342.383,647.184 L328.29,660.783 L328.745,670.462 L324.978,670.438 L323.681,664.93 L324.705,659.398 L323.048,655.662 L325.729,650.398 L329.52,646.587 L332.598,648.14"/>
<path vector-effect="none" fill-rule="evenodd" d="M944.398,733.159 L945.942,739.142 L952.584,740.795 L961.846,740.459 L955.432,745.512 L951.516,746.317 L940.606,741.082 L939.457,736.957 L944.398,733.159"/>
<path vector-effect="none" fill-rule="evenodd" d="M1042.9,680.892 L1035.32,688.53 L1025.57,699.166 L1033.16,695.054 L1038.83,697.662 L1034.13,701.91 L1041.72,705.254 L1047.07,702.281 L1055.63,706.034 L1050.06,714.987 L1057.47,712.894 L1056.91,719.392 L1057.88,727.019 L1050.85,737.843 L1046.27,738.301 L1040.41,735.977 L1045.29,725.918 L1042.99,724.358 L1028.64,735.017 L1022.88,734.59 L1031.45,728.812 L1022.88,725.827 L1012.13,726.561 L993.217,726.186 L992.82,722.552 L1000.23,718.235 L997.015,714.908 L1007.49,707.543 L1023.69,688.15 L1031.9,681.251 L1041.57,677.082 L1045.82,677.612 L1042.9,680.892"/>
<path vector-effect="none" fill-rule="evenodd" d="M951.221,698.426 L954.925,697.402 L966.555,700.456 L974.723,705.553 L974.261,707.793 L969.461,708.012 L958.192,704.184 L951.221,698.426"/>
<path vector-effect="none" fill-rule="evenodd" d="M370.479,715.07 L364.469,716.774 L352.133,711.216 L352.139,706.878 L346.394,702.607 L347.075,699.133 L338.686,696.942 L339.75,690.325 L342.639,687.515 L350.787,690.162 L355.359,692.005 L363.489,693.292 L363.818,697.489 L364.613,703.274 L370.904,708.313 L370.479,715.07"/>
<path vector-effect="none" fill-rule="evenodd" d="M-122.305,1070.98 L-120.617,1072.07 L-119.232,1073.75 L-117.455,1078.16 L-117.877,1078.86 L-122.76,1081.55 L-126.707,1083.51 L-128.783,1085.62 L-131.09,1083.82 L-129.973,1080.3 L-130.728,1075.72 L-129.862,1074.32 L-127.493,1072.27 L-127.675,1069.79 L-126.771,1068.62 L-125.995,1068.85 L-122.305,1070.98"/>
<path vector-effect="none" fill-rule="evenodd" d="M-126.789,1062.37 L-128.053,1063.88 L-131.918,1064.78 L-133.179,1062.13 L-134.192,1061.1 L-134.104,1060.32 L-132.783,1059.24 L-129.189,1060.43 L-126.789,1062.37"/>
<path vector-effect="none" fill-rule="evenodd" d="M-133.882,1057.17 L-134.542,1058.53 L-140.296,1058.17 L-139.116,1056.63 L-133.882,1057.17"/>
<path vector-effect="none" fill-rule="evenodd" d="M725.139,1090.98 L732.381,1092.11 L737.866,1095.13 L739.306,1098.57 L731.579,1098.81 L728.02,1100.91 L722.108,1098.89 L716.355,1094.31 L717.993,1091.43 L722.694,1090.55 L725.139,1090.98"/>
<path vector-effect="none" fill-rule="evenodd" d="M848.725,1090.67 L854.214,1091.78 L855.952,1094.28 L852.848,1097.45 L844.608,1097.38 L838.165,1097.82 L838.045,1092.44 L839.775,1090.6 L848.725,1090.67"/>
<path vector-effect="none" fill-rule="evenodd" d="M790.872,1075.57 L792.465,1073.43 L800.984,1073.49 L807.117,1076.73 L810.029,1076.41 L811.554,1080.87 L817.561,1080.62 L816.828,1084.37 L821.648,1084.83 L826.565,1089.45 L821.993,1094.57 L817.056,1091.83 L811.978,1092.36 L808.437,1091.76 L806.231,1094.06 L801.949,1094.83 L800.592,1091.78 L796.788,1093.58 L791.531,1102.2 L788.91,1100.2 L788.723,1096.58 L781.669,1094.44 L776.409,1095.32 L769.822,1094.41 L764.45,1096.76 L759,1092.84 L760.401,1088.78 L770.287,1090.53 L778.441,1091.54 L782.676,1088.74 L778.256,1083.29 L778.852,1078.48 L772.17,1076.52 L775.006,1073.04 L781.609,1073.6 L790.872,1075.57"/>
<path vector-effect="none" fill-rule="evenodd" d="M681.091,1031.85 L690.347,1032.75 L698.859,1032.89 L708.5,1037.18 L712.24,1041.79 L722.573,1040.37 L726.058,1043.32 L734.333,1051.12 L740.451,1056.79 L744.058,1056.62 L750.264,1059.19 L749.068,1062.73 L757.049,1063.25 L764.724,1068.4 L763.105,1071.35 L755.668,1072.94 L748.248,1073.57 L740.836,1072.57 L725.06,1073.8 L733.183,1066.78 L729.113,1063.51 L722.181,1062.67 L718.84,1059.04 L717.112,1051.87 L710.899,1052.36 L701.16,1048.98 L698.224,1046.34 L684.293,1044.39 L680.814,1041.94 L685.302,1038.79 L674.727,1038.15 L666.051,1044.69 L661.521,1044.87 L659.559,1047.94 L653.994,1049.31 L649.493,1048.12 L655.75,1044.23 L658.713,1039.69 L664.004,1036.89 L669.886,1034.44 L678.272,1033.24 L681.091,1031.85"/>
<path vector-effect="none" fill-rule="evenodd" d="M101.787,573.719 L107.54,574.76 L103.042,579.177 L95.4244,580.972 L92.205,578.815 L90.6374,575.686 L101.787,573.719"/>
<path vector-effect="none" fill-rule="evenodd" d="M105.486,535.164 L107.91,537.296 L114.787,536.144 L117.79,539.103 L124.345,540.603 L122.032,541.828 L112.389,544.21 L109.052,541.762 L108.477,539.723 L100.035,540.375 L99.3112,539.386 L105.486,535.164"/>
<path vector-effect="none" fill-rule="evenodd" d="M858.212,425.336 L873.658,425.683 L885.818,428.11 L865.987,437.059 L854.971,439.025 L839.642,446.636 L831.104,446.254 L834.711,437.322 L839.725,432.311 L847.95,428.054 L858.212,425.336"/>
<path vector-effect="none" fill-rule="evenodd" d="M760.572,430.68 L771.239,430.279 L774.652,432.486 L760.809,439.147 L756.424,432.084 L760.572,430.68"/>
<path vector-effect="none" fill-rule="evenodd" d="M958.8,438.712 L954.692,433.359 L958.033,429.746 L962.257,429.08 L978.81,430.159 L987.636,435.681 L986.172,438.474 L978.202,438.179 L970.065,437.965 L960.546,439.327 L958.8,438.712"/>
<path vector-effect="none" fill-rule="evenodd" d="M873.486,416.97 L865.445,420.796 L855.286,420.059 L848.915,417.486 L857.684,413.065 L871.239,410.434 L874.032,413.862 L873.486,416.97"/>
<path vector-effect="none" fill-rule="evenodd" d="M670.193,405.879 L670.193,405.879 L693.087,398.709 L716.991,392.602 L727.84,392.732 L739.709,391.36 L728.323,398.59 L718.036,401.901 L710.542,402.369 L691.08,406.492 L677.179,407.976 L670.193,405.879"/>
<path vector-effect="none" fill-rule="evenodd" d="M792.383,380.76 L798.943,382.582 L787.793,384.35 L776.026,384.341 L778.025,383.047 L789.199,380.352 L792.383,380.76"/>
<path vector-effect="none" fill-rule="evenodd" d="M917.762,365.223 L925.82,362.713 L933.544,362.142 L933.037,360.288 L949.31,359.879 L952.416,364.222 L961.705,365.996 L971.025,367.581 L969.8,373.216 L974.941,376.035 L962.316,378.664 L941.494,385.44 L928.156,386.097 L914.805,384.929 L911.669,381.24 L915.77,378.004 L924.213,375.656 L911.366,375.723 L907.398,372.826 L908.076,368.95 L917.762,365.223"/>
<path vector-effect="none" fill-rule="evenodd" d="M898.918,392.529 L895.324,392.797 L882.546,392.201 L883.78,389.602 L898.037,389.738 L901.029,391.462 L898.918,392.529"/>
<path vector-effect="none" fill-rule="evenodd" d="M781.761,386.669 L789.787,388.108 L783.552,390.879 L766.408,393.566 L759.998,390.552 L770.014,387.605 L781.761,386.669"/>
<path vector-effect="none" fill-rule="evenodd" d="M777.524,408.505 L786.13,406.882 L793.332,407.303 L788.805,412.071 L778.704,416.722 L751.5,418.251 L727.326,422.534 L715.573,422.759 L718.609,419.531 L739.624,415.176 L704.369,416.346 L696.231,414.59 L719.184,405.083 L729.796,402.391 L746.045,405.64 L751.703,411.39 L763.745,412.132 L765.086,402.862 L776.391,399.378 L782.457,400.483 L779.002,405.057 L777.524,408.505"/>
<path vector-effect="none" fill-rule="evenodd" d="M908.768,422.778 L897.767,421.556 L880.961,418.372 L883.975,412.977 L888.237,408.144 L885.485,403.925 L871.652,402.751 L866.628,399.789 L873.968,395.897 L888.189,396.497 L892.748,399.548 L907.111,399.527 L909.961,402.672 L904.392,406.29 L910.538,408.483 L912.847,410.795 L922.417,411.224 L932.436,412.042 L946.307,409.928 L962.179,409.099 L973.556,409.784 L978.111,413.466 L976.136,417.53 L969.137,420.154 L956.027,422.281 L947.458,421.076 L924.43,422.602 L908.768,422.778"/>
<path vector-effect="none" fill-rule="evenodd" d="M856.23,400.085 L856.602,404.528 L851.145,409.497 L839.661,416.774 L826.202,417.784 L819.913,416.209 L826.605,410.497 L813.57,411.247 L822.075,403.758 L829.602,404.058 L844.567,400.788 L854.176,401.34 L856.23,400.085"/>
<path vector-effect="none" fill-rule="evenodd" d="M837.077,376.345 L849.145,377.547 L863.775,380.796 L863.582,385.098 L861.472,388.928 L851.116,387.9 L843.281,384.93 L827.931,384.592 L838.416,381.902 L832.856,379.742 L837.077,376.345"/>
<path vector-effect="none" fill-rule="evenodd" d="M961.419,354.856 L973.278,353.387 L981.388,353.138 L996.025,351.904 L1009.3,349.112 L1017.01,349.5 L1021.6,351.598 L1031.51,347.584 L1041.61,346.42 L1054.33,345.623 L1074.71,345.325 L1077.31,346.102 L1097.59,344.888 L1111.28,345.342 L1125,345.797 L1141.97,346.362 L1155.19,347.292 L1165.41,349.288 L1163.31,351.284 L1144.02,354.597 L1126.33,356.172 L1118.57,357.934 L1133.27,357.893 L1112.72,362.772 L1099.39,365.103 L1080.99,372.007 L1065.28,373.44 L1059.09,375.217 L1037.02,376.156 L1045.54,377.261 L1039.11,378.844 L1040.56,383.271 L1030.76,386.394 L1017.18,388.998 L1010.2,392.636 L997.368,395.442 L996.287,397.581 L1009.04,397.214 L1007,399.532 L981.99,405.285 L965.404,402.63 L942.372,404.119 L932.665,402.956 L919.355,402.453 L923.396,397.877 L939.127,395.737 L942.998,388.997 L948.082,388.349 L962.894,392.354 L959.564,386.421 L949.996,384.669 L959.699,381.171 L974.588,379.041 L980.05,375.96 L974.129,372.556 L976.371,368.158 L994.752,368.522 L999.144,369.44 L1013.34,366.371 L999.024,365.409 L974.451,365.939 L965.817,363.135 L964.282,359.858 L959.4,357.525 L961.419,354.856"/>
<path vector-effect="none" fill-rule="evenodd" d="M892.067,381.107 L896.599,384.246 L890.615,387.55 L877.708,389.454 L874.548,387.312 L875.829,383.885 L880.056,380.156 L888.713,380.514 L892.067,381.107"/>
<path vector-effect="none" fill-rule="evenodd" d="M188.17,601.705 L193.335,602.494 L193.331,606.125 L179.603,611.697 L165.788,616.178 L164.308,613.143 L168.741,607.646 L181.429,603.486 L188.17,601.705"/>
<path vector-effect="none" fill-rule="evenodd" d="M717.425,1214.56 L715.991,1216.4 L718.216,1223.81 L715.96,1227.55 L712.427,1226.65 L710.742,1232.76 L707.202,1229.13 L705.133,1222.34 L708.03,1218.98 L705.264,1218.12 L703.401,1213.96 L698.062,1210.46 L693.174,1211.26 L690.706,1215.64 L686.074,1218.8 L683.635,1219.24 L682.422,1221.86 L687.392,1228.69 L684.294,1230.3 L682.61,1232.16 L677.423,1232.8 L675.844,1225.29 L674.302,1227.43 L670.681,1226.69 L668.686,1221.62 L664.182,1220.79 L661.38,1219.32 L656.624,1219.33 L656.146,1222.07 L654.968,1220.16 L649.098,1217.37 L646.987,1214.73 L648.38,1212.54 L648.129,1209.76 L645.229,1206.75 L641.015,1204.28 L637.3,1202.66 L636.796,1198.98 L634.033,1196.73 L634.518,1200.39 L632.128,1203.4 L629.809,1199.91 L626.331,1198.66 L624.979,1196.13 L625.291,1192.3 L627.021,1188.33 L624.021,1186.56 L626.724,1184.13 L623.186,1180.16 L618.402,1175.09 L616.301,1170.84 L611.967,1166.89 L606.918,1161.21 L608.312,1159.26 L609.969,1161.15 L610.881,1160.26 L609.323,1156.33 L606.072,1155.23 L604.582,1158.2 L598.21,1158.01 L594.348,1156.8 L590.017,1154.3 L583.963,1153.52 L581.098,1150.82 L575.656,1148.62 L568.804,1148.4 L564.014,1145.9 L558.626,1140.71 L547.685,1127.16 L542.502,1123.07 L533.932,1119.79 L527.681,1120.7 L518.272,1125.44 L512.579,1126.68 L505.225,1123.36 L497.291,1120.97 L487.774,1115.2 L479.778,1113.43 L468.154,1107.58 L459.828,1101.57 L457.545,1098.21 L451.523,1097.46 L440.906,1093.47 L437.208,1087.73 L426.548,1080.59 L422.305,1072.65 L420.663,1066.52 L424.495,1065.29 L423.938,1061.7 L426.96,1058.44 L427.707,1054.08 L424.948,1048.43 L424.792,1043.42 L422.22,1037.07 L414.876,1024.56 L405.855,1014.73 L402.184,1006.89 L394.003,1001.75 L392.693,998.678 L396.106,990.901 L391.303,987.966 L386.431,981.851 L385.982,973.07 L380.474,972.046 L376.023,965.418 L372.709,959.296 L373.37,955.363 L370.443,945.87 L369.671,936.23 L371.389,931.395 L365.352,926.402 L361.624,926.95 L356.737,923.482 L353.311,928.594 L353.078,934.635 L351.102,944.088 L353.165,949.277 L358.531,957.947 L359.446,960.91 L360.82,961.808 L361.025,966.131 L362.98,965.956 L362.942,974.073 L365.368,977.274 L366.521,981.73 L371.708,988.134 L372.561,999.839 L374.555,1005.35 L376.313,1011.25 L375.562,1017.88 L380.704,1018.3 L383.944,1024.02 L386.83,1029.64 L386.155,1031.89 L380.754,1036.51 L378.84,1036.45 L377.369,1028.8 L371.635,1021.63 L365.033,1015.55 L360.154,1012.35 L362.489,1003.14 L362.394,996.323 L358.168,992.423 L352.122,986.808 L350.3,988.428 L348.397,985.148 L342.53,982.103 L338.109,974.796 L339.148,973.846 L343.381,974.56 L348.637,969.86 L350.612,964.183 L344.965,955.204 L339.736,951.72 L338.231,943.86 L336.935,935.606 L335.393,925.544 L335.069,914.22 L335.631,907.791 L331.499,900.555 L327.157,899.049 L327.395,895.44 L321.738,894.808 L319.311,891.406 L310.045,890.165 L308.181,888.135 L309.712,881.24 L304.877,868.614 L303.954,851.159 L305.656,848.254 L303.021,844.112 L300.076,833.612 L303.76,823.407 L301.833,816.578 L309.591,806.228 L315.122,795.536 L317.29,785.996 L327.999,774.287 L335.847,763.036 L343.77,751.809 L352.087,735.266 L355.596,724.752 L356.405,719.057 L359.143,716.665 L370.581,720.828 L368.536,732.421 L372.976,729.175 L377.733,719.112 L380.913,709.077 L379.63,709.046 L368.982,697.069 L365.792,691.814 L352.026,686.787 L354.702,676.07 L361.741,668.664 L353.646,663.538 L359.767,653.863 L355.602,645.184 L360.58,639.044 L360.58,639.044 L359.296,634.572 L354.414,630.789 L360.905,620.475 L357.725,610.957 L363.093,599.906 L355.133,599.152 L341.054,598.866 L333.73,595.513 L327.14,583.475 L320.836,581.282 L309.535,577.167 L296.223,578.149 L284.409,572.863 L279.21,567.978 L266.778,570.403 L259.927,578.389 L254.219,579.129 L241.324,581.535 L229.245,585.436 L216.67,587.896 L222.847,581.081 L239.357,569.798 L252.657,566.273 L253.466,563.407 L235.089,569.782 L220.501,577.429 L198.554,585.643 L198.915,591.273 L181.325,599.634 L166.315,604.524 L153.376,608.096 L145.536,613.293 L124.758,619.371 L115.96,624.913 L99.8196,629.972 L94.4459,629.061 L82.3074,632.367 L68.6129,636.411 L56.6719,640.39 L37.0794,643.793 L37.7488,641.789 L53.86,636.229 L66.8541,632.565 L83.6659,626.086 L96.5279,624.749 L106.271,619.908 L126.58,612.862 L131.172,610.51 L142.399,606.371 L153.709,597.513 L165.935,590.644 L151.636,594.166 L150.984,592.166 L141.361,596.396 L142.156,590.499 L135,594.669 L138.241,588.877 L123.948,593.526 L118.441,593.516 L125.654,586.608 L132.217,582.367 L131.328,578.258 L117.151,580.468 L116.138,575.06 L113.429,572.302 L121.334,565.812 L120.605,560.948 L132.172,554.409 L147.219,548.09 L157.647,542.302 L165.656,541.481 L169.285,543.281 L183.069,537.859 L188.078,538.825 L198.985,535.348 L203.858,530.246 L201.656,528.241 L213.431,523.954 L208.071,524.08 L195.958,526.498 L190.199,528.956 L186.677,526.502 L173.041,527.75 L164.129,525.085 L166.522,520.627 L164.544,514.214 L182.571,509.62 L208.417,504.28 L215.244,504.28 L206.757,509.742 L224.945,509.315 L227.232,502.548 L222.682,498.408 L224.296,492.999 L222.882,488.407 L216.509,485.018 L229.136,479.424 L243.99,479.078 L261.142,474.246 L270.52,469.11 L285.99,464.127 L295.494,462.933 L317.322,458.312 L323.571,459.006 L343.814,453.487 L352.544,455.657 L351.534,460.341 L357.914,458.329 L370.393,458.952 L366.56,461.344 L376.247,463.117 L385.782,462.074 L398.062,465.375 L412.087,466.36 L416.444,467.724 L429.286,466.02 L437.34,469.175 L444.174,470.648 L444.174,470.648 L455.975,473.19 L462.443,478.287 L469.704,479.265 L482.085,474.839 L495.778,471.539 L506.17,472.827 L523.645,468.202 L539.792,465.588 L540.204,469.939 L549.014,467.484 L556.534,462.555 L560.727,463.669 L563.513,473.089 L582.173,465.958 L574.358,473.944 L586.137,472.211 L592.541,469.137 L601.571,469.744 L609.082,474.175 L623.886,478.061 L633.171,479.866 L641.793,479.181 L647.355,484.59 L630.639,489.914 L643.204,492.224 L666.543,490.953 L675.285,489.071 L678.031,495.537 L691.969,490.078 L687.861,485.524 L696.544,481.865 L706.878,481.374 L714.351,480.308 L718.558,482.855 L721.495,488.673 L731.379,487.817 L741.614,492.669 L755.805,490.958 L767.54,491.216 L772.234,484.536 L781.047,482.669 L790.62,486.298 L782.246,496.49 L794.453,487.893 L800.788,488.181 L813.251,477.447 L810.107,470.925 L804.43,466.677 L815.274,455.171 L831.34,447.701 L840.148,449.346 L844.052,453.891 L844.826,465.613 L833.461,470.774 L846.648,472.909 L837.986,483.776 L855.354,475.436 L859.714,482.28 L851.26,490.229 L853.801,497.515 L868.107,489.711 L880.892,480.472 L890.125,468.857 L900.884,469.664 L911.575,471.214 L918.558,476.461 L915.293,481.74 L905.22,487.444 L906.988,493.206 L902.339,498.469 L880.905,506.082 L868.159,507.769 L861.867,504.48 L855.504,509.971 L840.902,519.255 L835.054,524.097 L819.951,531.628 L807.224,532.367 L797.125,537.094 L791.409,544.399 L780.376,545.809 L763.281,554.979 L744.763,567.817 L735.044,576.87 L725.379,590.296 L737.27,592.232 L734.191,603.146 L732.757,612.035 L746.963,609.715 L760.774,614.801 L767.234,619.277 L770.52,624.854 L780.184,628.111 L787.153,633.104 L802.066,633.789 L811.523,634.936 L804.496,645.247 L801.151,657.274 L801.247,670.734 L809.937,682.208 L819.13,678.269 L830.148,665.864 L834.571,646.928 L831.201,640.652 L848.943,635.077 L863.681,626.767 L873.018,618.539 L876.374,610.678 L875.518,600.735 L869.392,591.971 L886.731,579.839 L888.79,569.43 L896.287,551.635 L903.876,549.022 L916.942,552.102 L925.242,553.205 L934.117,550.23 L940.059,554.067 L947.203,560.659 L947.491,565.089 L962.702,565.955 L957.487,575.592 L953.119,590.197 L960.423,592.012 L963.654,598.868 L979.745,592.404 L994.325,579.63 L1002.73,574.277 L1004.85,584.575 L1009.88,599.393 L1013.9,613.44 L1007.13,620.835 L1016.64,627.5 L1022.26,634.274 L1035.87,637.346 L1040.42,641.143 L1040.43,651.244 L1047.16,652.834 L1049.35,657.354 L1045.42,670.869 L1037,675.407 L1028.73,679.65 L1011.52,683.954 L996.048,693.927 L979.082,695.901 L959.375,693.341 L944.957,693.253 L934.671,694.095 L923.354,702.832 L909.007,708.242 L889.057,724.448 L873.7,735.796 L882.78,733.774 L904.244,717.641 L928.309,707.451 L943.257,706.234 L949.787,712.225 L937.79,720.45 L936.514,733.689 L936.747,742.982 L947.681,749.146 L964.61,747.359 L978.698,733.505 L976.695,742.438 L981.765,746.906 L967.106,755 L942.832,762.364 L931.393,767.377 L917.451,776.313 L910.103,775.401 L913.009,764.903 L933.533,754.669 L917.486,755.073 L905.942,756.58 L906.353,760.636 L893.749,766.637 L882.068,770.917 L870.267,774.589 L862.518,781.965 L859.895,784.761 L857.654,791.359 L858.896,797.961 L863.01,798.272 L863.378,793.725 L865.546,796.493 L863.622,800.053 L856.134,802.075 L851.327,801.832 L843.12,804.008 L838.496,804.632 L832.382,805.247 L822.737,808.861 L838.45,806.51 L840.728,808.874 L825.272,812.62 L818.759,812.645 L819.548,811.112 L815.343,814.575 L818.171,815.148 L813.184,824.129 L802.808,833.763 L803.004,830.547 L800.941,829.896 L798.523,826.766 L798.622,833.507 L800.516,835.736 L799.285,840.471 L794.564,845.343 L785.895,855.362 L785.089,854.863 L790.716,846.327 L786.827,841.535 L788.738,831.128 L785.113,836.543 L784.965,844.493 L778.712,842.529 L784.65,846.566 L781.71,858.506 L784.452,859.374 L784.341,863.718 L782.457,876.289 L773.383,885.62 L761.569,889.349 L752.772,896.727 L747.31,897.534 L740.803,902.157 L738.234,906.379 L724.607,914.548 L717.173,920.54 L710.383,928.002 L706.66,936.946 L706.583,945.688 L707.849,956.456 L710.805,965.365 L709.806,970.804 L712.211,985.401 L710.415,993.885 L709.138,998.78 L705.222,1006.46 L701.743,1008.05 L696.659,1006.53 L695.835,1001 L692.208,998.11 L688.361,987.288 L685.13,977.661 L684.465,972.738 L688.334,964.385 L686.772,957.463 L680.737,946.934 L677.008,945.002 L664.945,950.715 L663.174,950.086 L659.341,944.214 L653.39,941.1 L640.962,942.682 L631.838,941.29 L623.496,942.158 L618.609,944.121 L619.722,947.467 L618.341,952.572 L620.034,955.058 L617.616,956.713 L614.074,954.856 L609.507,957.244 L601.833,956.853 L595.43,950.201 L585.73,951.771 L578.674,948.857 L571.811,949.74 L562.09,952.681 L550.082,962.011 L538.146,967.437 L530.897,973.446 L527.151,979.109 L525.164,987.792 L524.45,993.832 L525.642,998.11 L521.357,998.488 L525.642,998.11 L519.333,1009.16 L515.812,1018.21 L512.206,1035.07 L510.191,1041.22 L511.023,1048.09 L513.481,1054.22 L514.229,1063.98 L520.127,1073.35 L521.657,1080.53 L525.065,1086.73 L536.222,1090.07 L540.03,1095.33 L550.11,1091.82 L558.628,1090.55 L567.126,1088.28 L574.301,1086.12 L581.941,1080.99 L585.525,1073.65 L587.84,1063.08 L590.223,1059.4 L598.05,1056.1 L609.964,1053.18 L619.549,1053.62 L626.296,1052.56 L628.556,1055.22 L627.394,1061.29 L620.561,1068.77 L616.974,1076.43 L618.705,1078.62 L616.368,1084.06 L612.377,1093.88 L610.011,1090.65 L607.693,1090.86 L607.498,1092.7 L609.566,1092.76 L608.951,1096.18 L606.496,1101.63 L607.215,1103.57 L605.514,1108.08 L606.061,1109.28 L604.029,1115.64 L601.481,1118.98 L599.451,1119.38 L596.771,1123.74 L600.098,1126.01 L601.257,1124.14 L604.301,1125.75 L605.388,1126.24 L608.047,1124.02 L611.212,1123.84 L612.117,1124.87 L613.892,1124.24 L618.873,1125.38 L623.991,1125.05 L627.681,1123.66 L629.126,1122.25 L632.556,1122.9 L635.092,1123.76 L637.999,1123.46 L640.303,1122.37 L645.133,1124.12 L646.848,1124.39 L649.952,1126.75 L652.835,1129.57 L656.636,1131.49 L659.183,1134.96 L658.117,1136.16 L657.282,1138.97 L657.968,1143.58 L655.034,1147.86 L653.399,1152.93 L652.565,1158.47 L652.888,1161.72 L652.711,1167.38 L650.927,1168.62 L649.484,1174 L649.998,1177.33 L647.505,1180.54 L647.781,1183.94 L649.335,1186.01 L651.686,1192.85 L655.648,1197.91 L660.525,1203.29 L664.245,1207.8 L663.872,1210.47 L668.261,1211.03 L669.361,1210.01 L672.241,1213.1 L677.738,1212.19 L682.617,1209.01 L689.479,1206.47 L693.465,1202.71 L699.535,1203.45 L699.055,1204.69 L705.204,1205.12 L710.014,1207.29 L713.432,1211.08 L717.425,1214.56"/>
<path vector-effect="none" fill-rule="evenodd" d="M955.564,494.857 L948.179,498.056 L938.578,498.6 L939.958,493.303 L947.393,487.272 L955.841,485.785 L960.289,488.756 L957.435,493.369 L955.564,494.857"/>
<path vector-effect="none" fill-rule="evenodd" d="M875.495,554.289 L880.923,550.888 L884.323,551.136 L885.126,553.459 L878.121,559.432 L874.842,558.464 L874.61,555.073 L875.495,554.289"/>
<path vector-effect="none" fill-rule="evenodd" d="M846.156,550.128 L855.928,544.918 L867.712,545.026 L866.15,547.212 L852.069,553.453 L846.097,553.191 L846.156,550.128"/>
<path vector-effect="none" fill-rule="evenodd" d="M866.665,520.397 L873.384,524.197 L880.833,527.658 L878.169,532.96 L885.005,532.091 L888.761,535.797 L878.934,539.326 L867.311,536.629 L865.787,531.595 L853.405,537.548 L837.345,543.36 L838.773,536.791 L826.432,537.867 L837.631,532.332 L844.713,523.573 L854.598,513.458 L860.032,514.354 L858.258,519.204 L863.73,517.501 L866.665,520.397"/>
<path vector-effect="none" fill-rule="evenodd" d="M800.692,472.989 L802.17,477.037 L794.008,480.766 L785.836,477.543 L778.255,478.705 L771.4,473.94 L781.361,470.668 L790.991,466.114 L796.844,469.09 L800.006,470.984 L800.692,472.989"/>
<path vector-effect="none" fill-rule="evenodd" d="M962.984,443.291 L973.434,439.252 L986.726,444.397 L993.929,449.274 L991.781,453.765 L1007.97,451.435 L1011.74,458.017 L1028.21,462.126 L1032.51,466.34 L1034.16,476.206 L1016.37,481.158 L1031.46,488.145 L1043.12,490.507 L1049.58,500.449 L1062.22,501.17 L1055.71,508.832 L1034.44,521.625 L1026.53,516.902 L1019.06,506.339 L1007.52,507.71 L1002.97,513.997 L1008.32,520.41 L1017.09,525.51 L1019.05,528.464 L1018.96,539.531 L1011.93,547.625 L1002.58,544.569 L985.756,535.577 L992.781,545.258 L998.299,552.083 L997.722,556.045 L976.462,551.516 L961.41,544.956 L954.019,539.476 L958.792,536.312 L949.331,530.568 L940.135,525.169 L938.353,528.394 L912.684,530.171 L907.862,526.349 L918.537,518.192 L934.474,517.995 L952.641,516.585 L952.201,512.655 L958.431,507.186 L975.605,496.585 L976.283,491.806 L975.424,488.121 L966.262,482.925 L952.23,479.3 L959.21,476.612 L955.177,470.042 L948.538,469.442 L944.769,465.869 L938.281,468.966 L922.789,470.319 L895.421,467.969 L880.939,464.894 L869.296,463.319 L865.693,459.658 L877.863,454.929 L866.72,454.884 L873.196,444.485 L887.242,435.411 L898.862,431.303 L920.967,428.639 L909.57,435.129 L910.197,441.439 L924.31,433.288 L947.234,429.168 L951.737,439.587 L945.3,446.254 L962.984,443.291"/>
<path vector-effect="none" fill-rule="evenodd" d="M1265.13,349.292 L1290.13,344.946 L1312.91,345.267 L1322.79,342.658 L1346.16,341.99 L1397.72,342.864 L1436.69,348.562 L1423.55,351.435 L1398.01,351.767 L1361.89,352.509 L1364.62,353.874 L1388.6,353.029 L1407.72,355.69 L1421.51,353.324 L1426.18,356.1 L1417.3,360.721 L1435.41,357.75 L1468.78,354.716 L1488.56,356.222 L1491.75,359.605 L1462.87,365.408 L1458.57,367.329 L1436.22,368.787 L1452.07,369.193 L1442.41,375.481 L1435.29,381.238 L1432.95,391.423 L1440.17,397.559 L1428.73,397.951 L1416,400.964 L1428.27,406.058 L1428.13,414.333 L1419.94,415.241 L1427.81,423.738 L1410.85,424.452 L1418.75,428.506 L1415.49,432.041 L1404.35,433.597 L1393.67,433.626 L1401.73,440.473 L1400.84,445.005 L1386.46,440.792 L1381.81,443.515 L1391.71,446.067 L1400.58,452.341 L1401.86,460.681 L1387.3,462.689 L1382.07,458.677 L1373.72,452.733 L1374.75,459.76 L1364.23,465.245 L1385.13,465.69 L1396,466.261 L1372.57,475.435 L1348.64,483.824 L1323.86,487.524 L1314.85,487.57 L1305.24,491.714 L1290.56,503.156 L1270.43,510.82 L1264.51,511.272 L1252.54,513.971 L1239.66,516.544 L1230.22,523.384 L1227.59,531.181 L1220.9,538.527 L1203.93,547.533 L1204.55,556.385 L1197.6,565.811 L1189.52,577.014 L1176.79,577.716 L1166.88,568.337 L1149.3,568.278 L1143.05,562.01 L1141.4,550.914 L1131.95,536.907 L1130.6,529.626 L1133.59,519.656 L1126.34,509.496 L1132.88,501.449 L1129.08,497.621 L1142.9,485.032 L1156.93,481.058 L1162.12,476.611 L1167.54,468.364 L1156.67,472.093 L1151.57,473.664 L1143.63,475.172 L1135.42,471.722 L1138.4,464.587 L1144.28,459.042 L1151.69,458.892 L1166.52,461.659 L1156.13,455.067 L1150.88,451.535 L1142.32,452.984 L1137.12,450.432 L1150.92,440.91 L1148.3,437.136 L1146.18,430.181 L1143.46,419.63 L1136.38,415.804 L1139.18,411.702 L1123.3,406.016 L1108.2,405.313 L1088.24,405.702 L1069.72,406.412 L1063.7,403.343 L1056.15,397.342 L1077.71,394.374 L1092.66,393.878 L1063.95,391.447 L1051.26,387.668 L1055.57,384.116 L1086.33,379.781 L1115.78,375.531 L1121.25,372.367 L1105.37,369.294 L1114.46,365.942 L1143.23,360.227 L1153.83,359.368 L1154.17,355.819 L1171.82,353.781 L1193.35,352.579 L1213.86,352.511 L1219.3,354.902 L1240.11,350.704 L1253.96,353.542 L1262.92,354.148 L1275.18,356.678 L1262.02,352.51 L1265.13,349.292"/>
<path vector-effect="none" fill-rule="evenodd" d="M755.411,435.951 L759.705,440.033 L754.405,449.98 L749.663,457.26 L758.034,462.41 L767.819,467.364 L762.758,471.992 L748.801,472.841 L750.253,476.911 L744.036,480.811 L730.89,479.137 L719.641,476.27 L709.657,476.915 L691.061,480.521 L668.977,482.12 L653.545,483.129 L654.131,478.102 L646.032,475.21 L637.665,476.395 L636.458,468.039 L642.952,466.921 L657.139,465.132 L667.883,465.602 L680.147,463.782 L667.316,461.344 L649.482,462.174 L638.451,461.964 L638.452,458.129 L661.27,453.989 L648.981,454.133 L638.313,451.418 L653.664,443.743 L663.779,439.695 L691.609,433.546 L697.176,435.492 L687.884,440.234 L708.532,437.169 L713.577,442.291 L728.004,437.111 L731.421,440.431 L727.19,450.468 L735.523,446.217 L741.156,435.814 L749.532,434.338 L755.411,435.951"/>
<path vector-effect="none" fill-rule="evenodd" d="M798.405,439.696 L796.672,433.089 L810.786,428.239 L817.678,430.345 L832.574,429.077 L831.624,431.984 L819.658,436.814 L827.1,441.176 L817.069,450.375 L800.518,454.364 L793.747,453.502 L792.043,449.571 L780.459,441.685 L783.921,438.438 L798.405,439.696"/>
<path vector-effect="none" fill-rule="evenodd" d="M657.445,422.217 L665.553,424.277 L684.182,424.83 L687.968,427.717 L691.059,431.932 L678.41,434.469 L651.091,441.583 L633.108,448.732 L627.963,453.221 L601.542,458.208 L602.614,453.671 L590.983,448.232 L599.603,443.902 L614.173,436.49 L629.246,429.878 L629.862,423.766 L657.445,422.217"/>
</g>

<g fill="#440154" fill-opacity="1" stroke="#000000" stroke-opacity="1" stroke-width="3.07087" stroke-linecap="square" stroke-linejoin="bevel" transform="matrix(0.999751,0,0,0.999751,0,0)"
font-family="MS Shell Dlg 2" font-size="34.375" font-weight="400" font-style="normal" 
>
<path vector-effect="none" fill-rule="evenodd" d="M2121.2,1480.6 L2123.87,1485.95 L2126.18,1494.26 L2127.11,1509.4 L2129.61,1515.29 L2128.14,1521.32 L2125.95,1525.03 L2122.69,1517.65 L2120.39,1521.38 L2121.88,1530.7 L2120.55,1536.04 L2117.32,1538.94 L2115.89,1549.6 L2110.54,1564.27 L2103.9,1581.61 L2095.42,1605.46 L2089.88,1622.96 L2083.74,1637.55 L2074.68,1640.53 L2064.77,1645.85 L2058.83,1642.64 L2050.63,1638.14 L2048.18,1631.5 L2048.33,1620.34 L2045.23,1610.31 L2044.86,1601.25 L2047.41,1592.18 L2052.57,1590 L2052.88,1585.81 L2058.72,1576.27 L2060.23,1568.26 L2058.08,1562.3 L2056.51,1554.36 L2056.36,1542.77 L2060.62,1535.73 L2062.56,1527.74 L2068.07,1527.28 L2074.35,1524.7 L2078.55,1522.42 L2083.39,1522.25 L2090.07,1515.08 L2099.57,1507.33 L2103.21,1501 L2101.99,1495.62 L2106.6,1497.14 L2113.12,1488.39 L2113.68,1480.82 L2117.59,1475.2 L2121.2,1480.6"/>
<path vector-effect="none" fill-rule="evenodd" d="M1488.62,1268.74 L1485.72,1268.86 L1474.29,1262.86 L1464.25,1253.28 L1454.83,1246.39 L1447.4,1238.27 L1444.42,1237.34 L1436.47,1232.27 L1430.74,1225.53 L1428.84,1220.93 L1427.56,1211.63 L1422.77,1204.18 L1418.51,1199.26 L1415.7,1197.63 L1412.96,1195.13 L1411.77,1189.57 L1410.18,1186.79 L1406.99,1184.73 L1401.16,1179.47 L1396.52,1178.64 L1394.03,1175.09 L1394.12,1173.18 L1390.8,1170.51 L1390.14,1167.81 L1388.48,1158.17 L1389.99,1152.58 L1385.63,1142.79 L1380.22,1138.31 L1385.11,1135.92 L1390.62,1127.08 L1393.37,1120.62 L1392.57,1113.84 L1395.77,1107.63 L1397.4,1095.78 L1396.49,1083.35 L1395.32,1077.09 L1396.56,1070.82 L1393.88,1064.83 L1388.27,1059.4 L1388.88,1054.08 L1389.54,1048.25 L1393.81,1044.82 L1397.54,1038.26 L1396.95,1034 L1400.92,1025.12 L1407.18,1017.12 L1410.88,1015.09 L1413.95,1007.76 L1414.4,1001.05 L1418.53,993.273 L1425.85,988.687 L1433.06,975.835 L1433.26,975.659 L1438.8,970.826 L1448.83,969.436 L1457.51,960.835 L1462.97,957.481 L1472.17,946.972 L1469.93,931.31 L1474.27,920.479 L1475.87,913.851 L1482.91,905.349 L1493.64,899.601 L1501.56,894.4 L1508.86,881.379 L1512.31,873.659 L1520,873.72 L1526.22,879.055 L1536.18,878.186 L1546.99,880.961 L1551.54,881.095 L1561.63,874.227 L1572.93,872.042 L1579.52,866.858 L1589.53,863.035 L1607.15,860.797 L1624.34,859.778 L1629.62,861.643 L1639.3,856.695 L1650.4,856.598 L1654.7,859.519 L1661.79,858.756 L1672.93,853.691 L1680.25,855.197 L1680.18,861.549 L1688.82,856.928 L1689.66,859.339 L1684.7,865.493 L1684.84,871.304 L1688.58,874.426 L1687.6,885.306 L1680.91,891.629 L1683.14,898.485 L1688.6,898.699 L1691.46,904.681 L1695.54,906.648 L1708.11,910.98 L1712.51,909.897 L1721.43,911.998 L1735.72,917.622 L1741.2,928.811 L1750.85,931.254 L1766.11,936.523 L1777.78,942.782 L1782.8,939.516 L1787.58,933.726 L1784.55,924.083 L1787.51,917.961 L1794.76,912.062 L1801.93,910.346 L1816.41,912.921 L1820.41,918.548 L1824.36,918.602 L1827.89,920.749 L1838.53,922.226 L1841.42,926.382 L1855.53,926.174 L1866.01,929.503 L1876.87,933.223 L1881.95,935.183 L1889.81,931.195 L1893.87,927.588 L1903.14,926.55 L1910.84,928.139 L1914.3,934.383 L1916.39,930.27 L1925.19,933.244 L1933.55,933.957 L1938.48,930.786 L1938.48,930.786 L1946.18,949.143 L1947.54,952.412 L1944.99,957.471 L1943.5,966.978 L1941.12,973.531 L1938.79,975.728 L1934.89,971.667 L1929.59,966.051 L1920.45,948.01 L1919.45,949.151 L1924.99,962.432 L1932.58,975.084 L1942.18,994.684 L1946.64,1001.53 L1950.6,1008.63 L1961.21,1022.56 L1959.19,1024.76 L1960.03,1032.94 L1973.34,1044.23 L1975.4,1046.81 L1979.61,1059.16 L1977.34,1061.44 L1979.64,1074.4 L1984.48,1089.42 L1988.82,1092.52 L1995.06,1097.17 L2002.22,1111.74 L2005.84,1123.29 L2012.17,1129.42 L2027.77,1141.31 L2034.22,1148.48 L2040.52,1155.74 L2044.15,1160.07 L2049.74,1163.85 L2052.51,1167.75 L2052.37,1172.97 L2046.18,1175.98 L2051.06,1179.43 L2054.74,1181.75 L2057.09,1186.95 L2062.26,1192.22 L2067.76,1192.26 L2078.07,1189.04 L2090.05,1187.55 L2099.63,1183.64 L2105.08,1182.81 L2108.94,1180.52 L2115.21,1180.07 L2115.21,1180.07 L2118.73,1179.83 L2123.75,1177.96 L2129.55,1176.69 L2134.58,1172.38 L2138.77,1172.35 L2139.18,1175.83 L2138.48,1183.15 L2138.79,1189.76 L2136.64,1194.31 L2134.01,1207.91 L2129.12,1221.97 L2122.71,1238.04 L2113.63,1256.48 L2104.43,1270.57 L2091.64,1287.74 L2080.64,1297.93 L2064.12,1310.42 L2053.79,1319.99 L2041.6,1335.24 L2039,1341.87 L2036.46,1344.85 L2028.64,1349.88 L2025.84,1355.13 L2021.66,1356.05 L2019.98,1364.92 L2016.35,1370 L2014.05,1378.37 L2009.52,1382.53 L2004.13,1398.03 L2004.65,1405.16 L2011.66,1409.75 L2011.92,1413.02 L2008.71,1420.62 L2009.26,1424.45 L2008.39,1430.46 L2012.06,1438.35 L2016.29,1450.75 L2020.27,1453.51 L2020.27,1453.51 L2021.88,1459.15 L2021,1471.69 L2021.95,1482.73 L2021.55,1502.4 L2023.2,1508.56 L2019.48,1517.55 L2014.77,1526.29 L2007.37,1534.1 L1997.08,1538.88 L1984.39,1544.99 L1971.31,1558.49 L1966.98,1560.79 L1958.88,1569.73 L1954.23,1572.64 L1952.84,1581.62 L1957.51,1591.15 L1959.27,1598.53 L1959.19,1602.29 L1961.15,1601.66 L1960.14,1614.01 L1958.03,1619.85 L1960.46,1622.01 L1958.52,1627.24 L1953.71,1631.72 L1944.51,1635.97 L1931.06,1642.78 L1926.02,1647.44 L1926.59,1652.74 L1929.29,1653.58 L1927.9,1660.21 L1924.55,1669.37 L1922.47,1679.82 L1919.25,1685.5 L1911.43,1691.86 L1909.19,1693.68 L1904.14,1700.07 L1900.62,1706.54 L1893.82,1715.56 L1880.69,1728.55 L1872.56,1736.1 L1864.09,1741.83 L1852.65,1746.71 L1847.22,1747.36 L1845.57,1750.86 L1839.33,1749 L1833.92,1751.39 L1822.71,1748.97 L1816.21,1750.5 L1811.9,1749.84 L1800.69,1754.81 L1791.59,1756.8 L1784.78,1761.55 L1779.99,1761.86 L1775.84,1757.37 L1772.3,1757.14 L1768.12,1751.53 L1767.52,1753.27 L1766.32,1749.89 L1766.81,1742.51 L1763.86,1734.08 L1767.4,1731.78 L1767.65,1722.12 L1761.3,1710.34 L1756.44,1699.68 L1756.43,1699.65 L1749.45,1683.29 L1741.84,1673.79 L1737.96,1664.6 L1735.98,1652.34 L1733.59,1643.23 L1730.49,1623.85 L1730.6,1608.79 L1729.37,1601.93 L1725.25,1596.74 L1719.84,1586.35 L1714.39,1571.25 L1712.16,1563.35 L1703.47,1551.06 L1702.96,1541.41 L1702.06,1533.49 L1703.75,1522.43 L1707.71,1510.91 L1708.36,1505.51 L1712.09,1494.16 L1714.78,1489.01 L1721.23,1480.77 L1724.84,1475.17 L1726.11,1465.85 L1725.61,1458.72 L1722.35,1454.22 L1719.48,1446.58 L1716.83,1439.03 L1717.45,1436.42 L1720.89,1431.43 L1717.63,1419.27 L1715.42,1410.85 L1709.91,1402.88 L1710.98,1400.44 L1709.45,1396.53 L1706.53,1387.07 L1697.47,1373.74 L1686.1,1361.04 L1678.79,1350.66 L1672.06,1337.66 L1672.42,1333.48 L1674.85,1329.45 L1677.55,1320.29 L1679.78,1310.96 L1677.7,1309.06 L1681.49,1294.93 L1683.09,1284.99 L1678.72,1276.67 L1673.65,1274.54 L1671.37,1268.9 L1668.52,1267.1 L1668.64,1263.62 L1657.12,1268.15 L1652.91,1267.48 L1648.65,1270.31 L1639.76,1270.03 L1633.8,1262.16 L1630.12,1253.05 L1622.25,1244.76 L1613.91,1244.91 L1604.12,1244.91 L1594.96,1246.37 L1586.03,1249.06 L1568.63,1256.43 L1562.46,1260.74 L1552.45,1264.39 L1542.56,1260.82 L1537.51,1260.95 L1529.76,1258.49 L1522.65,1258.63 L1509.49,1260.83 L1501.78,1264.46 L1490.77,1269.08 L1488.62,1268.74"/>
</g>

<g fill="#8fd744" fill-opacity="1" stroke="#000000" stroke-opacity="1" stroke-width="3.07087" stroke-linecap="square" stroke-linejoin="bevel" transform="matrix(0.999751,0,0,0.999751,0,0)"
font-family="MS Shell Dlg 2" font-size="34.375" font-weight="400" font-style="normal" 
>
<path vector-effect="none" fill-rule="evenodd" d="M952.179,2009.42 L951.219,2014.22 L944.936,2017.9 L940.227,2017.53 L934.318,2016.57 L925.964,2013 L915.457,2011.28 L900.662,2004.63 L888.13,1998.22 L868.958,1984.79 L877.897,1987.31 L894.768,1995.32 L909.149,1999.61 L911.52,1994.13 L910.965,1985.92 L917.553,1980.95 L924.888,1982.37 L930.866,1987.94 L939.4,1996.93 L954.626,2004.1 L968.933,2007.07 L967.285,2013.02 L958.741,2013.61 L952.179,2009.42"/>
<path vector-effect="none" fill-rule="evenodd" d="M991.718,1972.89 L1000.57,1965.64 L1009.75,1968.66 L1013.81,1963.82 L1023.31,1969.27 L1021.91,1973.5 L1010.36,1977.12 L1004.57,1972.89 L998.458,1978.32 L991.718,1972.89"/>
<path vector-effect="none" fill-rule="evenodd" d="M959.308,1750.41 L959.85,1756.98 L975.261,1767.75 L975.552,1776.41 L983.173,1781.89 L983.897,1788.02 L977.375,1804.11 L963.595,1810.83 L943.547,1813.44 L931.922,1812.18 L935.942,1819.64 L936.242,1829.01 L939.791,1835.31 L934.856,1839.7 L924.893,1841.42 L913.825,1836.88 L910.808,1840.14 L915.795,1852.53 L923.727,1856.28 L928.133,1852.35 L933.014,1858.82 L924.852,1862.68 L919.093,1870.41 L921.474,1882.89 L921.198,1889.52 L911.799,1889.55 L906.055,1895.88 L906.271,1905.14 L918.982,1914.16 L929.211,1916.64 L929.552,1927.66 L920.443,1934.56 L919.367,1948.87 L912.395,1953.68 L910.682,1959.36 L918.837,1971.94 L928.036,1978.92 L923.785,1978.31 L915.307,1978.22 L911.999,1981.19 L905.344,1985.53 L908.796,1996.73 L904.953,1997.01 L892.599,1993.12 L878.012,1984.76 L878.012,1984.76 L863.109,1977.87 L856.692,1970.23 L856.278,1963.13 L847.973,1955.06 L838.152,1934.28 L837.681,1922.49 L844.462,1912.99 L828.162,1909.4 L833.544,1898.5 L829.566,1877.95 L842.218,1882.31 L838.702,1856.58 L830.813,1853.27 L832.905,1868.8 L825.955,1867.05 L823.104,1849.25 L819.213,1826.13 L821.366,1817.57 L814.87,1805.35 L810.108,1791.22 L814.374,1790.81 L815.516,1770.53 L817.905,1750.41 L818.134,1731.66 L811.714,1712.8 L812.836,1702.41 L808.657,1686.88 L812.287,1671.51 L810.495,1647.17 L810.555,1621.03 L810.79,1592.9 L807.837,1572.3 L803.74,1554.57 L792.026,1547.35 L790.557,1542.18 L767.556,1529.55 L746.539,1515.78 L737.351,1508.03 L731.902,1497.63 L733.419,1494 L722.827,1477.49 L710.412,1454.27 L698.599,1429.21 L693.795,1423.48 L689.892,1414.21 L680.933,1405.99 L672.827,1400.9 L676.204,1395.28 L670.401,1383.28 L673.574,1374.47 L682.199,1366.52 L687.882,1357.11 L685.365,1351.62 L681.239,1357.46 L674.467,1351.95 L676.657,1348.4 L674.621,1336.98 L678.497,1335.08 L680.498,1327.24 L684.708,1319.14 L683.961,1314 L690.073,1311.3 L697.77,1306.29 L696.316,1302.39 L700.477,1301.44 L700.095,1295.14 L702.794,1290.58 L708.324,1289.74 L713.191,1281.83 L717.619,1275.23 L713.612,1272.23 L715.93,1264.93 L713.811,1253.41 L716.307,1250.11 L714.958,1239.47 L710.742,1232.76 L712.427,1226.65 L715.96,1227.55 L718.216,1223.81 L715.991,1216.4 L717.425,1214.56 L723.129,1214.96 L731.879,1206.17 L736.508,1204.83 L736.839,1200.67 L739.48,1190.04 L746.175,1184.2 L753.156,1183.96 L754.197,1181.33 L762.781,1182.38 L771.874,1176.03 L776.36,1173.22 L782.108,1167.15 L785.967,1167.92 L788.646,1171.23 L786.23,1175.47 L785.731,1178.45 L779.154,1179.91 L782.418,1185.63 L781.91,1192.21 L776.637,1199.52 L780.33,1209.5 L785.143,1208.68 L788.079,1199.59 L784.88,1195.16 L784.853,1185.63 L798.919,1180.52 L797.75,1174.58 L801.874,1170.61 L805.292,1179.46 L813.03,1179.66 L819.813,1186.68 L820.021,1190.85 L829.946,1190.96 L841.829,1189.66 L847.878,1195.3 L856.264,1196.85 L862.662,1192.92 L862.947,1189.75 L876.683,1188.99 L889.944,1188.82 L880.372,1192.54 L883.873,1198.48 L892.681,1199.42 L900.806,1205.61 L902.168,1215.69 L907.952,1215.41 L912.182,1218.38 L919.292,1223 L925.876,1231.2 L925.985,1237.68 L930.155,1237.98 L935.92,1244.12 L940.179,1248.5 L953.407,1251.02 L954.659,1248.75 L963.654,1247.85 L975.498,1251.23 L969.462,1262.05 L970.15,1270.66 L974.362,1278.11 L972.322,1283.53 L971.25,1289.29 L968.34,1294.58 L973.159,1297.17 L976.643,1293.76 L979.122,1294.29 L980.592,1297.83 L985.925,1296.93 L990.246,1292.15 L993.801,1282.88 L1000.58,1271.37 L1004.38,1270.77 L1006.99,1277.73 L1012.91,1299.74 L1018.83,1301.82 L1019.06,1310.51 L1010.66,1320.86 L1014.12,1324.66 L1033.77,1326.63 L1034.22,1339.25 L1042.62,1330.99 L1056.63,1335.51 L1075.14,1343.2 L1080.63,1350.57 L1078.89,1357.54 L1091.77,1353.66 L1113.47,1360.32 L1130.06,1359.83 L1146.62,1370.24 L1161.01,1384.34 L1169.62,1387.97 L1179.12,1388.47 L1183.2,1392.44 L1187.24,1408.47 L1189.22,1416.08 L1185.24,1436.89 L1179.81,1445.1 L1164.7,1462.61 L1158.12,1476.84 L1150.35,1487.75 L1147.6,1488 L1144.89,1497.25 L1146.75,1520.83 L1144.69,1540.23 L1143.98,1548.53 L1140.79,1553.49 L1139.83,1570.32 L1129.74,1586.74 L1128.7,1599.74 L1120.25,1605.2 L1118.21,1612.74 L1106.41,1612.71 L1089.68,1617.54 L1082.47,1623.14 L1070.62,1626.82 L1058.74,1636.84 L1050.77,1649.32 L1050.15,1658.72 L1052.69,1665.66 L1052.12,1678.38 L1050.41,1684.52 L1043.79,1691.45 L1034.97,1713.6 L1027.11,1723.58 L1020.82,1729.47 L1017.94,1741.44 L1012.19,1748.64 L1009.02,1756.54 L998.444,1763.53 L990.234,1761.02 L984.812,1762.37 L974.088,1756.97 L967.042,1757.37 L959.308,1750.41"/>
</g>

<g fill="#443a83" fill-opacity="1" stroke="#000000" stroke-opacity="1" stroke-width="3.07087" stroke-linecap="square" stroke-linejoin="bevel" transform="matrix(0.999751,0,0,0.999751,0,0)"
font-family="MS Shell Dlg 2" font-size="34.375" font-weight="400" font-style="normal" 
>
<path vector-effect="none" fill-rule="evenodd" d="M2905.1,1452.77 L2891.18,1443.95 L2901.7,1441.48 L2907.2,1445.31 L2910.74,1449.13 L2909.77,1452.53 L2905.1,1452.77"/>
<path vector-effect="none" fill-rule="evenodd" d="M2777.69,1404.49 L2778.96,1408.96 L2800.14,1410.22 L2802.87,1405.03 L2823.1,1411.08 L2826.64,1419.24 L2843.12,1421.53 L2856.2,1429.01 L2843.21,1433.81 L2831.39,1428.74 L2821.34,1429.08 L2809.91,1428.15 L2799.69,1425.89 L2787.16,1421.08 L2779.1,1419.84 L2774.39,1421.41 L2754.49,1416.23 L2752.88,1410.82 L2742.78,1409.89 L2751.02,1397.87 L2764.44,1398.61 L2773.14,1403.53 L2777.69,1404.49"/>
<path vector-effect="none" fill-rule="evenodd" d="M3062.63,1410.44 L3062.19,1400.97 L3064.44,1396.45 L3067.03,1392.19 L3069.32,1395.88 L3068.92,1401.88 L3062.63,1410.44"/>
<path vector-effect="none" fill-rule="evenodd" d="M2959.11,1441.88 L2951.05,1451.28 L2941.32,1454.05 L2940.13,1452.54 L2941.52,1448.26 L2946.95,1440.58 L2958.31,1435.58 L2959.85,1432.61 L2969.61,1429.78 L2977.37,1429.36 L2980.96,1427.79 L2985.03,1429.35 L2980.68,1432.76 L2968.69,1438.27 L2959.11,1441.88"/>
<path vector-effect="none" fill-rule="evenodd" d="M2884.52,1428.91 L2891.44,1427.88 L2893.79,1433.23 L2880.79,1435.76 L2872.99,1437.45 L2867.04,1437.35 L2871.39,1430.1 L2877.47,1430 L2880.76,1425.55 L2884.52,1428.91"/>
<path vector-effect="none" fill-rule="evenodd" d="M2918.49,1431.1 L2925.93,1430.14 L2936.21,1425.53 L2934.06,1432.52 L2917.13,1436.1 L2902.52,1434.55 L2902.83,1429.95 L2911.83,1427.33 L2918.49,1431.1"/>
<path vector-effect="none" fill-rule="evenodd" d="M3141.04,1356.39 L3139.02,1397.4 L3135.97,1438.42 L3127.03,1428.09 L3115.99,1425.56 L3112.96,1429.14 L3098.89,1429.53 L3104.43,1419.29 L3111.68,1415.79 L3109.76,1402.11 L3105.11,1391.54 L3084.21,1380.89 L3075.11,1379.83 L3059.02,1368.21 L3055.45,1374.32 L3051.13,1375.43 L3048.83,1370.82 L3049.05,1365.35 L3040.81,1359.17 L3052.95,1354.63 L3060.86,1354.88 L3060.04,1351.54 L3043.78,1351.51 L3039.58,1344.02 L3029.71,1341.7 L3025.11,1335.47 L3040.14,1332.42 L3045.87,1328.32 L3063.67,1333.49 L3065.35,1338.17 L3067.87,1358.52 L3079.05,1366.05 L3088.87,1352.7 L3101.85,1345.11 L3111.73,1345.1 L3121.11,1349.49 L3129.2,1353.99 L3141.04,1356.39"/>
<path vector-effect="none" fill-rule="evenodd" d="M2983.47,1371.38 L2975.9,1369.07 L2973.97,1363.66 L2985.23,1363.05 L2987.82,1367.2 L2983.47,1371.38"/>
<path vector-effect="none" fill-rule="evenodd" d="M3011.72,1358.93 L3023.81,1362.6 L3027.42,1372.23 L3018.28,1367.04 L3009.04,1365.99 L3002.74,1366.82 L2995.07,1366.38 L2997.98,1359.46 L3011.72,1358.93"/>
<path vector-effect="none" fill-rule="evenodd" d="M2996.01,1296.3 L2996.99,1303.18 L3003.58,1304.28 L3004.72,1309.42 L3004.26,1320.42 L2998.52,1319.19 L2996.83,1326.84 L3001.36,1333.49 L2998.23,1335 L2993.81,1327.03 L2990.42,1310.94 L2992.45,1300.88 L2996.01,1296.3"/>
<path vector-effect="none" fill-rule="evenodd" d="M2960.2,1170.61 L2964.83,1184.66 L2955.96,1181.32 L2956.63,1185.55 L2960.1,1193.31 L2955.1,1196.13 L2953.79,1187.28 L2950.39,1186.63 L2947.87,1179.01 L2954.48,1180.01 L2953.82,1175.25 L2945.97,1165.64 L2956.61,1165.91 L2960.2,1170.61"/>
<path vector-effect="none" fill-rule="evenodd" d="M2930.76,1198.06 L2933.22,1194.54 L2933.69,1186.73 L2939.71,1185.99 L2938.75,1194.46 L2945.74,1182.31 L2945.87,1194.32 L2942.27,1198.45 L2939.5,1206.4 L2936.33,1210.13 L2928.78,1201.43 L2930.76,1198.06"/>
<path vector-effect="none" fill-rule="evenodd" d="M2480.93,1229 L2479.82,1242.1 L2475.32,1245.68 L2465.78,1248.56 L2460.1,1238.56 L2457.33,1220.47 L2461.27,1200.04 L2469.31,1207.03 L2474.93,1215.89 L2480.93,1229"/>
<path vector-effect="none" fill-rule="evenodd" d="M2922.96,1180.01 L2920.61,1174.02 L2927.66,1177.91 L2934.69,1177.9 L2935.02,1183.15 L2930.44,1188.5 L2923.77,1192.28 L2922.82,1186.43 L2922.96,1180.01"/>
<path vector-effect="none" fill-rule="evenodd" d="M2907.87,1163.79 L2901.07,1154.2 L2910.58,1154.66 L2914.97,1159.2 L2913.31,1170.07 L2907.87,1163.79"/>
<path vector-effect="none" fill-rule="evenodd" d="M2914.03,1094.32 L2913.15,1099.54 L2918.44,1108.56 L2917.27,1119.02 L2911.45,1123.19 L2911.25,1133.33 L2915.14,1143.36 L2921.17,1144.74 L2925.84,1143.25 L2940.55,1150.23 L2940.38,1157.08 L2944.36,1160.1 L2943.91,1165.9 L2934.57,1159.73 L2929.66,1153.11 L2927.41,1157.73 L2919.43,1150.2 L2909.66,1152.06 L2903.81,1149.28 L2903.68,1144.08 L2906.68,1140.88 L2902.99,1137.97 L2902.2,1142.5 L2895.75,1135.27 L2893.3,1129.79 L2891.05,1117.74 L2896.12,1121.88 L2894.05,1102.2 L2895.66,1090.79 L2902.29,1090.81 L2909.67,1094.4 L2912.47,1091.12 L2914.03,1094.32"/>
<path vector-effect="none" fill-rule="evenodd" d="M2886.3,1206.43 L2872.47,1218.37 L2877.24,1209.57 L2884.61,1201.8 L2890.5,1193.09 L2895.09,1180.59 L2898.06,1190.85 L2891.38,1197.78 L2886.3,1206.43"/>
<path vector-effect="none" fill-rule="evenodd" d="M2773.23,1094.66 L2763.64,1090.76 L2761.6,1079.94 L2766.07,1074.23 L2777.43,1070.71 L2783.76,1071 L2786.98,1075.81 L2783.08,1081.35 L2781.73,1088.61 L2773.23,1094.66"/>
<path vector-effect="none" fill-rule="evenodd" d="M2734.41,1337.32 L2736.15,1346.1 L2739.85,1353.12 L2747.98,1354.24 L2753.15,1362.2 L2749.77,1377.85 L2748.45,1397.32 L2736.15,1397.58 L2727.29,1387.06 L2713.47,1376.78 L2709,1369.15 L2700.93,1358.9 L2695.65,1349.47 L2687.47,1331.86 L2677.74,1321.37 L2674.4,1310.55 L2670.14,1300.72 L2659.94,1292.8 L2653.82,1282.03 L2645.22,1274.98 L2633.11,1261.12 L2631.87,1254.71 L2639.03,1255.22 L2656.32,1257.65 L2666.64,1269.96 L2675.54,1278.49 L2681.84,1283.72 L2692.74,1297.25 L2704.04,1297.45 L2713.55,1306.07 L2720.11,1316.61 L2728.6,1322.36 L2724.1,1332.63 L2730.43,1337 L2734.41,1337.32"/>
<path vector-effect="none" fill-rule="evenodd" d="M2940.73,1312.66 L2953.51,1312.13 L2964.33,1302.99 L2966.33,1305.8 L2957.57,1318.29 L2949.22,1320.71 L2938.51,1318.25 L2919.99,1318.87 L2910.29,1320.69 L2908.69,1330.21 L2918.48,1341.4 L2924.58,1335.7 L2945.36,1331.42 L2944.37,1337.21 L2939.56,1335.39 L2934.6,1342.76 L2924.71,1347.64 L2934.69,1363.77 L2932.49,1368.09 L2941.8,1382.61 L2941.27,1390.88 L2935.14,1394.58 L2931.03,1390.15 L2936.92,1379.85 L2925.78,1384.72 L2923.2,1381.24 L2924.87,1376.38 L2917.19,1369 L2918.48,1356.74 L2910.94,1360.56 L2911.27,1375.24 L2910.82,1393.24 L2903.69,1395.07 L2899.12,1391.37 L2902.88,1379.79 L2901.7,1367.65 L2897.04,1367.55 L2893.91,1358.93 L2898.76,1350.69 L2900.57,1340.7 L2906.32,1321.73 L2908.63,1316.54 L2917.95,1307.19 L2926.69,1310.91 L2940.73,1312.66"/>
<path vector-effect="none" fill-rule="evenodd" d="M2883.4,1271.6 L2877.55,1282.97 L2886.12,1294.88 L2884.36,1300.67 L2897.03,1312.32 L2883.88,1313.8 L2880.23,1322.38 L2880.65,1333.79 L2869.83,1342.39 L2869.22,1354.92 L2864.21,1374.17 L2862.77,1369.69 L2849.91,1375.36 L2845.83,1367.66 L2837.93,1366.95 L2832.54,1362.92 L2819.17,1367.44 L2815.34,1361.35 L2808.03,1362.05 L2798.92,1360.59 L2797.68,1343.72 L2792.19,1340.22 L2786.98,1329.45 L2785.44,1318.44 L2786.6,1306.78 L2793.03,1298.42 L2801.27,1302.73 L2809.81,1300.38 L2811.76,1289.73 L2816.42,1287.35 L2829.65,1284.63 L2837.23,1274.67 L2842.33,1266.71 L2846.51,1262.01 L2855.61,1255.11 L2863.68,1246.36 L2868.7,1236.53 L2873.18,1236.48 L2879.26,1242.85 L2880.08,1248.32 L2887.58,1251.83 L2897.04,1255.62 L2896.51,1260.55 L2889.09,1261.17 L2891.38,1267.31 L2883.4,1271.6"/>
<path vector-effect="none" fill-rule="evenodd" d="M2974.39,1217.78 L2976.14,1226.14 L2977.29,1233.2 L2974.26,1244.71 L2969.37,1231.88 L2964.61,1238.27 L2968.73,1247.54 L2965.9,1253.44 L2952.41,1246.13 L2948.73,1237.02 L2951.71,1231.04 L2944.28,1225.09 L2941.16,1230.31 L2935.91,1229.82 L2928.17,1236.84 L2926.09,1233.16 L2929.71,1222.55 L2936.43,1219.02 L2942.11,1214.27 L2946.46,1219.97 L2954.62,1216.52 L2955.98,1210.91 L2963.78,1210.57 L2962.29,1200.84 L2971.78,1206.81 L2973.24,1213.15 L2974.39,1217.78"/>
<path vector-effect="none" fill-rule="evenodd" d="M1839.26,797.688 L1849.12,793.769 L1858.05,795.439 L1859.86,800.231 L1869.24,804.258 L1867.77,807.315 L1855.76,808.003 L1851.86,811.864 L1844.09,818.593 L1840.23,812.773 L1840.08,810.196 L1842.35,808.796 L1844.59,800.988 L1839.26,797.688"/>
<path vector-effect="none" fill-rule="evenodd" d="M3023.9,771.154 L3027.36,765.899 L3039.15,779.829 L3026.49,783.231 L3025.74,795.591 L3004.33,787.081 L3007.51,800.708 L2996.32,800.896 L2987.13,788.512 L2985.92,778.945 L2996.21,778.255 L2987.62,761.101 L2983.96,751.462 L3004.52,764.343 L3015.05,768.51 L3023.9,771.154"/>
<path vector-effect="none" fill-rule="evenodd" d="M2898.35,792.791 L2898.35,792.791 L2898.35,792.791 L2898.35,792.791"/>
<path vector-effect="none" fill-rule="evenodd" d="M1930.21,882.477 L1930.65,883.488 L1920.48,888.596 L1915.16,886.964 L1912.16,881.915 L1917.09,881.452 L1917.82,881.383 L1918.99,878.351 L1926.55,878.521 L1935.61,874.77 L1929.18,880.123 L1930.21,882.477"/>
<path vector-effect="none" fill-rule="evenodd" d="M2893.19,1016.68 L2890.84,1036.86 L2888.16,1047.18 L2880.4,1036.56 L2877.3,1027.23 L2881.06,1014.87 L2887.55,1005.34 L2893.35,1009.09 L2893.19,1016.68"/>
<path vector-effect="none" fill-rule="evenodd" d="M2157.34,1114.13 L2149.64,1117.51 L2147.89,1123.09 L2147.92,1127.38 L2137.3,1132.7 L2120.07,1138.57 L2110.7,1147.45 L2105.88,1148.14 L2102.54,1147.4 L2096.36,1152.62 L2089.45,1155.04 L2080.23,1155.7 L2077.48,1156.41 L2075.22,1159.73 L2072.37,1160.65 L2070.8,1163.85 L2065.33,1163.58 L2061.87,1165.28 L2054.21,1164.64 L2051.02,1157.29 L2051.03,1150.41 L2049.05,1146.7 L2046.44,1137.39 L2043.01,1132.22 L2045.18,1131.61 L2043.75,1125.86 L2044.95,1123.43 L2044.16,1117.94 L2042.42,1112.57 L2038.89,1108.78 L2037.75,1103.76 L2031.83,1099.25 L2025.36,1088.7 L2021.66,1078.44 L2013.59,1069.78 L2008.6,1067.72 L2000.67,1055.72 L1998.88,1046.98 L1998.89,1039.52 L1991.76,1025.56 L1986.35,1020.65 L1980.33,1018.05 L1976.27,1010.84 L1976.66,1007.99 L1973.19,1001.47 L1969.83,998.661 L1964.9,989.3 L1957.54,979.153 L1951.35,970.51 L1946.01,970.57 L1947.09,963.663 L1947.19,959.257 L1948.06,954.234 L1947.54,952.412 L1946.18,949.143 L1938.48,930.786 L1938.48,930.786 L1938.48,930.786 L1941.15,926.638 L1940.35,925.924 L1942.55,920.041 L1943.69,910.545 L1944.85,907.359 L1945.13,907.228 L1947.73,896.979 L1951.91,888.116 L1952.05,887.678 L1949.9,878.058 L1951.82,872.886 L1947.26,867.188 L1950.6,862.471 L1944.39,863.54 L1935.32,860.651 L1929.05,867.88 L1913.39,869.292 L1904.18,862.55 L1892.91,862.128 L1891.08,867.339 L1884.03,868.83 L1873.26,862.141 L1861.92,862.368 L1854.52,849.885 L1846.25,842.928 L1850.26,833.185 L1843.11,827.203 L1853.15,815.243 L1868.83,814.744 L1871.93,805.255 L1891.55,806.907 L1902.65,798.817 L1913.95,795.295 L1930.67,795.03 L1949.81,803.816 L1965.21,808.642 L1976.75,806.718 L1985.72,807.83 L1996.56,801.318 L1997.09,795.993 L1992.96,787.5 L1986.26,782.917 L1980.41,781.488 L1976.01,777.682 L1976.96,776.215 L1985.86,778.338 L2001.06,780.349 L2015.98,786.309 L2018.21,788.622 L2023.94,786.668 L2033.9,789.271 L2038.06,794.38 L2045.03,797.267 L2047.96,797.685 L2056.53,805.259 L2061.21,806.111 L2062.29,802.937 L2067.28,797.913 L2074.04,804.478 L2081.12,813.333 L2086,813.917 L2089.87,817.286 L2081.65,818.292 L2081.84,828.005 L2080.94,832.39 L2077.73,835.317 L2079.19,841.523 L2084.19,850.769 L2094.5,853.383 L2102.88,859.681 L2118.07,861.845 L2133.68,858.523 L2134.09,855.587 L2130.38,846.714 L2129.15,833.606 L2120.22,829.368 L2120.99,820.802 L2114.03,820.073 L2113.93,809.542 L2124.25,812.607 L2132.29,808.612 L2123.09,801.124 L2118.46,793.997 L2111.06,797.174 L2112.16,806.311 L2107.11,798.231 L2105.83,795.193 L2107.08,790.004 L2104.11,785.669 L2091.41,781.434 L2084.2,770.284 L2077.92,767.147 L2076.61,763.111 L2086.62,764.287 L2084.77,755.238 L2092.72,753.23 L2101.87,755.077 L2100.54,743.03 L2096.77,735.411 L2087.07,736.006 L2077.92,733.003 L2067.88,738.416 L2059.31,740.999 L2053.81,739.006 L2053.27,732.672 L2044.99,724.462 L2037.81,724.805 L2027.49,716.488 L2030.81,707.219 L2027.34,704.729 L2031.55,691.351 L2043.36,698.405 L2042.13,689.524 L2058.07,676.349 L2072.86,676.036 L2096.54,684.415 L2109.45,689.323 L2117.98,684.205 L2133.07,683.962 L2147.47,690.249 L2149.03,686.647 L2162.69,687.17 L2163.04,681.43 L2144.6,673.116 L2151.57,667.243 L2148.58,663.964 L2156.46,660.839 L2146.52,652.625 L2149.24,648.543 L2182.52,644.388 L2185.83,641.444 L2207.19,637.05 L2213.31,632.123 L2231.13,634.681 L2239.73,647.025 L2248.15,644.121 L2262.05,648.192 L2264.31,654.723 L2273,654.039 L2291.02,642.763 L2289.45,646.503 L2305.93,655.746 L2341.69,686.373 L2343.83,680.03 L2360.31,687.011 L2372.6,683.895 L2378.94,686.076 L2386.93,693.093 L2394.79,695.453 L2401.35,700.621 L2413.02,698.991 L2421.7,706.451 L2425.02,705.447 L2434.23,703.332 L2447.43,692.844 L2459.07,687.132 L2469.39,690.858 L2479.52,691.037 L2488.97,696.717 L2498.84,697.155 L2514.43,700.217 L2519.18,691.743 L2511.28,684.6 L2513.89,672.067 L2527.51,677.059 L2537.01,678.475 L2550.09,681.585 L2557.27,690.672 L2573.92,695.786 L2581.7,693.531 L2592.94,691.942 L2603.54,693.544 L2616.49,699.393 L2626.05,705.626 L2634.97,705.499 L2648.36,707.487 L2655.46,704.461 L2666.98,702.441 L2675.71,693.86 L2682.34,695.174 L2690,699.253 L2700.87,698.238 L2715.45,702.839 L2724.02,695.142 L2720.33,689.794 L2720.02,676.943 L2722.54,673.071 L2717.57,666.416 L2710.27,663.556 L2713.6,657.581 L2723.65,655.419 L2735.86,655.094 L2752.72,658.665 L2764.44,663.089 L2779.59,675.243 L2787.06,680.447 L2795.88,687.889 L2807.98,699.8 L2827.56,703.697 L2845.12,712.382 L2856.93,723.893 L2871.82,723.907 L2876.97,719.07 L2890.57,715.459 L2893.12,726.492 L2892.38,730.989 L2898,744.481 L2899.13,756.498 L2885.65,754.309 L2879.88,758.677 L2889.17,769.286 L2896.74,783.957 L2891.79,784.292 L2895.64,790.612 L2895.64,790.612 L2898.35,792.791 L2894.06,792.044 L2892.14,796.262 L2891.56,800.502 L2897.04,809.463 L2893.3,812.223 L2892.7,814.426 L2890.85,818.12 L2885.13,820.175 L2882.46,823.534 L2884.95,828.951 L2884.46,830.333 L2889.59,832.369 L2898.2,837.863 L2914.39,852.657 L2920.81,860.793 L2927.53,875.266 L2926.64,882.176 L2918.2,884.591 L2912.05,889.806 L2903.04,890.883 L2898.97,884.035 L2896.83,874.607 L2886.38,861.53 L2893.13,859.416 L2881,848.677 L2874.84,846.29 L2874.7,848.646 L2872.16,849.688 L2870.68,847.328 L2867.46,846.179 L2863.72,844.179 L2863.9,838.662 L2865.61,837.192 L2863.57,834.903 L2862.8,828.149 L2861.08,826.104 L2854.4,824.741 L2847.84,821.387 L2835.35,825.023 L2830.68,830.872 L2821.25,834.29 L2823.91,828.489 L2819.35,823.616 L2823.18,815.213 L2814.37,808.67 L2807.77,813.078 L2800.62,821.768 L2798.22,829.847 L2788.42,830.449 L2785.9,836.292 L2795.21,844.767 L2804.6,846.825 L2807.46,852.455 L2817.28,856.121 L2824.89,847.162 L2836.31,852.046 L2843.16,852.38 L2847.81,858.955 L2834.63,862.462 L2832.68,869.243 L2825.17,875.547 L2823.38,884.346 L2837.44,891.257 L2846.41,903.632 L2857.2,915.165 L2867.93,924.834 L2871.06,934.185 L2865.56,937.622 L2870.35,944.336 L2877.92,948.244 L2879.53,958.495 L2879.82,968.469 L2874.15,969.6 L2870.11,983.221 L2865.58,999.736 L2858.97,1014.75 L2846.49,1026.37 L2833.44,1036.96 L2821.46,1038.4 L2815.83,1044 L2811.34,1039.91 L2806.31,1046.16 L2792.19,1052.47 L2780.99,1054.4 L2779.47,1067.69 L2773.55,1068.43 L2769.19,1059.29 L2770.97,1054.42 L2755.68,1050.39 L2750.88,1052.44 L2738.07,1063.21 L2730.85,1075.1 L2729.81,1083.83 L2740.21,1097.1 L2752.91,1113.54 L2763.98,1121.32 L2772.05,1131.42 L2779.96,1154.71 L2780.78,1176.85 L2772.32,1185.14 L2760.35,1193.24 L2752.14,1203.73 L2739.15,1215.45 L2734.58,1207.38 L2737.06,1198.85 L2728.29,1191.7 L2718.89,1189.87 L2713.84,1183.31 L2707.09,1170.31 L2696.62,1164.53 L2687.2,1164.77 L2687.83,1154.88 L2678.12,1154.95 L2678.61,1168.79 L2674.23,1187.17 L2671.48,1198.29 L2672.88,1207.4 L2680.12,1207.79 L2685.35,1219.28 L2687.98,1230.17 L2694.55,1237.38 L2701.35,1238.84 L2707.43,1245.37 L2710.04,1246.55 L2716.95,1254.15 L2721.99,1262.57 L2722.98,1271.05 L2722.01,1276.77 L2723.25,1281.1 L2724.3,1288.55 L2728.31,1292.02 L2732.94,1303.14 L2732.81,1307.4 L2724.94,1308.24 L2714.25,1298.92 L2700.85,1288.93 L2699.35,1282.52 L2692.63,1274.1 L2690.68,1263.68 L2686.38,1256.82 L2687.18,1247.65 L2684.47,1242.32 L2679.85,1237.49 L2677.62,1231.26 L2671.33,1224.15 L2665.61,1218.18 L2664.22,1225.58 L2661.71,1218.59 L2662.43,1210.74 L2664.87,1198.67 L2663.1,1189.33 L2665.72,1179.69 L2661.36,1172.24 L2660.97,1158.53 L2655.83,1152.01 L2650.59,1136.95 L2646.68,1121.05 L2640.57,1110.63 L2634.16,1116.94 L2622.79,1125.91 L2616.49,1124.79 L2609.32,1121.84 L2611.13,1106.25 L2607.27,1094.46 L2596.72,1079.95 L2597.43,1075.42 L2590.81,1073.8 L2581.66,1063.54 L2577.63,1056.98 L2576.11,1050.57 L2573.17,1044.51 L2567.56,1037.18 L2557.48,1036.68 L2559.22,1041.87 L2556.8,1048.87 L2551.81,1046.32 L2550.55,1048.61 L2547.27,1047.24 L2542.91,1046.11 L2541.98,1050.7 L2534.55,1050.55 L2521.48,1053.16 L2523.35,1062.63 L2518.48,1070.07 L2503.84,1078.54 L2493.42,1093.35 L2486.13,1101.29 L2476.15,1109.52 L2476.77,1115.31 L2471.63,1118.41 L2462.21,1122.92 L2457.15,1123.59 L2454.81,1133.19 L2458.6,1149.55 L2460.06,1159.99 L2456.29,1171.95 L2457.66,1193.33 L2451.98,1193.94 L2447.49,1203.54 L2451.09,1207.69 L2441.18,1211.25 L2437.87,1219.81 L2433.59,1223.43 L2422.54,1211.68 L2416.47,1194.06 L2411.45,1181.36 L2407.19,1175.41 L2400.49,1163.32 L2396.54,1147.58 L2393.97,1139.72 L2382.4,1122.44 L2375.42,1098.05 L2370.45,1081.94 L2368.85,1066.7 L2365.45,1054.92 L2350.4,1062.45 L2342.56,1060.94 L2326.7,1045.69 L2331.44,1041.14 L2327.68,1036.2 L2313.72,1025.52 L2305.4,1022.34 L2301.07,1013.29 L2291.5,1003.71 L2271.89,1006.08 L2254.35,1006.31 L2239.33,1008.07 L2218.55,1004.27 L2206.43,1001.38 L2194.05,999.747 L2187.59,984.317 L2182.16,982.088 L2174.17,984.336 L2164.03,990.426 L2150.38,986.252 L2138.37,976.582 L2127.59,972.997 L2118.94,961.056 L2108.84,944.275 L2103.37,946.315 L2096.03,942.144 L2092.7,947.057 L2086.29,946.44 L2089.22,951.995 L2088.63,954.867 L2093.23,964.36 L2098.7,975.213 L2104.31,978.087 L2106.65,982.507 L2114.57,987.796 L2115.78,992.988 L2115.14,997.179 L2116.93,1001.41 L2120.39,1004.93 L2122.23,1009.06 L2124.14,1012.14 L2122.54,1002.99 L2124.77,996.386 L2127.57,995.033 L2131.26,998.977 L2132.2,1006.34 L2130.57,1013.75 L2133.07,1018.55 L2134.95,1017.94 L2135.66,1021.39 L2143.96,1019.41 L2152.95,1019.74 L2159.53,1020.11 L2166.11,1011.6 L2173.33,1003.53 L2179.28,995.776 L2181.91,991.492 L2183.38,992.585 L2182.97,997.783 L2181.82,1000.07 L2184.38,1010.01 L2190.13,1018.6 L2196.64,1023.17 L2204.76,1024.81 L2211.41,1027.11 L2217.02,1034.32 L2220.35,1038.5 L2224.39,1040.1 L2224.64,1042.9 L2221.37,1050.4 L2219.95,1053.94 L2215.72,1057.96 L2212.41,1066.58 L2207.41,1065.92 L2205.39,1068.92 L2204.19,1075.3 L2206.24,1083.72 L2205.34,1085.26 L2200.31,1085.22 L2193.86,1089.92 L2193.29,1096.05 L2191,1098.71 L2184.18,1098.61 L2180.13,1101.78 L2180.58,1106.86 L2175.53,1110.35 L2169.39,1109.17 L2162.36,1113.41 L2157.34,1114.13"/>
<path vector-effect="none" fill-rule="evenodd" d="M2969.89,902.538 L2972.49,895.031 L2979.11,896.486 L2981.11,891.199 L2990.03,893.912 L2993.27,898.226 L2990.61,905.841 L2984.56,901.804 L2980.4,904.728 L2980.67,912.091 L2972.3,908.506 L2969.89,902.538"/>
<path vector-effect="none" fill-rule="evenodd" d="M3033.82,830.742 L3031.27,843.356 L3038.29,856.301 L3039.47,866.322 L3044.4,872.618 L3043.24,881.476 L3032.63,887.392 L3014.54,888.163 L3005.96,902.523 L2996.77,897.688 L2992.15,888.286 L2975.13,891.061 L2965.26,896.986 L2953.04,897.227 L2967.63,906.485 L2969.11,927.878 L2964.24,933.175 L2957.26,928.282 L2955.46,916.938 L2947.31,913.277 L2939.52,904.647 L2947.88,900.77 L2950.04,892.862 L2957.76,886.36 L2961.59,877.764 L2980.67,874.016 L2993.05,876.586 L2993.1,854.256 L3003.03,860.251 L3011.84,847.701 L3015.14,842.83 L3013.17,827.513 L3003.23,813.453 L3002.77,805.567 L3012.18,803.277 L3028.25,820.598 L3033.82,830.742"/>
</g>

<g fill="none" stroke="#000000" stroke-opacity="1" stroke-width="1" stroke-linecap="square" stroke-linejoin="bevel" transform="matrix(11.8081,0,0,11.8081,0,0)"
font-family="MS Shell Dlg 2" font-size="34.375" font-weight="400" font-style="normal" 
>
</g>

<g fill="none" stroke="#000000" stroke-opacity="1" stroke-width="1" stroke-linecap="square" stroke-linejoin="bevel" transform="matrix(11.8081,0,0,11.8081,0,0)"
font-family="MS Shell Dlg 2" font-size="34.375" font-weight="400" font-style="normal" 
>
</g>

<g fill="none" stroke="#000000" stroke-opacity="1" stroke-width="1" stroke-linecap="square" stroke-linejoin="bevel" transform="matrix(11.8081,0,0,11.8081,0,0)"
font-family="MS Shell Dlg 2" font-size="34.375" font-weight="400" font-style="normal" 
>
</g>

<g fill="none" stroke="#000000" stroke-opacity="1" stroke-width="1" stroke-linecap="square" stroke-linejoin="bevel" transform="matrix(1,0,0,1,0,0)"
font-family="MS Shell Dlg 2" font-size="34.375" font-weight="400" font-style="normal" 
>
</g>

<g fill="none" stroke="#000000" stroke-opacity="1" stroke-width="1" stroke-linecap="square" stroke-linejoin="bevel" transform="matrix(11.8081,0,0,11.8081,0,0)"
font-family="MS Shell Dlg 2" font-size="34.375" font-weight="400" font-style="normal" 
>
</g>

<g fill="none" stroke="#000000" stroke-opacity="1" stroke-width="1" stroke-linecap="square" stroke-linejoin="bevel" transform="matrix(11.8081,0,0,11.8081,0,0)"
font-family="MS Shell Dlg 2" font-size="34.375" font-weight="400" font-style="normal" 
>
</g>

<g fill="none" stroke="#000000" stroke-opacity="1" stroke-width="1" stroke-linecap="square" stroke-linejoin="bevel" transform="matrix(11.8081,0,0,11.8081,0,0)"
font-family="MS Shell Dlg 2" font-size="34.375" font-weight="400" font-style="normal" 
>
</g>

<g fill="none" stroke="#000000" stroke-opacity="1" stroke-width="1" stroke-linecap="square" stroke-linejoin="bevel" transform="matrix(11.8081,0,0,11.8081,0,0)"
font-family="MS Shell Dlg 2" font-size="34.375" font-weight="400" font-style="normal" 
>
</g>

<g fill="none" stroke="#000000" stroke-opacity="1" stroke-width="1" stroke-linecap="square" stroke-linejoin="bevel" transform="matrix(11.8081,0,0,11.8081,0,0)"
font-family="MS Shell Dlg 2" font-size="34.375" font-weight="400" font-style="normal" 
>
</g>

<g fill="none" stroke="#000000" stroke-opacity="1" stroke-width="1" stroke-linecap="square" stroke-linejoin="bevel" transform="matrix(11.8081,0,0,11.8081,0,0)"
font-family="MS Shell Dlg 2" font-size="34.375" font-weight="400" font-style="normal" 
>
</g>

<g fill="none" stroke="#000000" stroke-opacity="1" stroke-width="1" stroke-linecap="square" stroke-linejoin="bevel" transform="matrix(1,0,0,1,0,0)"
font-family="MS Shell Dlg 2" font-size="34.375" font-weight="400" font-style="normal" 
>
</g>
</g>
</svg>
