<?xml version="1.0" standalone="no"?><!-- Generator: Gravit.io --><svg xmlns="http://www.w3.org/2000/svg" xmlns:xlink="http://www.w3.org/1999/xlink" style="isolation:isolate" viewBox="0 0 640 512" width="640" height="512"><defs><clipPath id="_clipPath_oGI4OXUcAnVsWEzBGJsJfT4Ut4cKtXhc"><rect width="640" height="512"/></clipPath></defs><g clip-path="url(#_clipPath_oGI4OXUcAnVsWEzBGJsJfT4Ut4cKtXhc)"><path d=" M 624 448 L 599.32 448 L 359.54 117.75 L 412.95 44.2 C 418.14 37.05 416.56 27.04 409.41 21.85 L 383.51 3.06 C 376.36 -2.13 366.36 -0.55 361.16 6.61 L 320 63.3 L 278.83 6.6 C 273.64 -0.55 263.63 -2.14 256.48 3.05 L 230.6 21.85 C 223.45 27.04 221.86 37.05 227.06 44.2 L 280.47 117.75 L 40.68 448 L 16 448 C 7.16 448 0 455.16 0 464 L 0 496 C 0 504.84 7.16 512 16 512 L 624 512 C 632.84 512 640 504.84 640 496 L 640 464 C 640 455.16 632.84 448 624 448 Z  M 320 288 L 436.36 448 L 203.64 448 L 320 288 L 320 288 Z " fill="rgb(219,0,150)"/></g></svg>