<?xml version="1.0" standalone="no"?><!-- Generator: Gravit.io --><svg xmlns="http://www.w3.org/2000/svg" xmlns:xlink="http://www.w3.org/1999/xlink" style="isolation:isolate" viewBox="0 0 640 480" width="640" height="480"><defs><clipPath id="_clipPath_f1B8VHJM46HtR9BYEMHiRc3VG2Mk7wr4"><rect width="640" height="480"/></clipPath></defs><g clip-path="url(#_clipPath_f1B8VHJM46HtR9BYEMHiRc3VG2Mk7wr4)"><g opacity="0.1"><path d=" M 0 0 L 640 0 L 640 480 L 0 480 L 0 0 Z " fill="rgb(0,127,255)"/></g><g opacity="0.1"><path d=" M 28.8 96 L 96 96 L 116.8 28.8 L 137.6 96 L 204.8 96 L 150.4 137.6 L 171.2 204.8 L 116.8 163.2 L 62.4 204.8 L 83.2 137.6 L 28.8 96 L 28.8 96 Z  M 600 0 L 0 360 L 0 480 L 40 480 L 640 120 L 640 0 L 600 0 Z " fill="rgb(247,214,24)"/></g><g opacity="0.1"><path d=" M 640 0 L 0 384 L 0 480 L 640 96 L 640 0 Z " fill="rgb(206,16,33)"/></g></g></svg>