<?xml version="1.0" standalone="no"?><!-- Generator: Gravit.io --><svg xmlns="http://www.w3.org/2000/svg" xmlns:xlink="http://www.w3.org/1999/xlink" style="isolation:isolate" viewBox="0 0 640 480" width="640" height="480"><defs><clipPath id="_clipPath_Bff0GZ71AdlcvnzJuaJoiiTuSTznb0HP"><rect width="640" height="480"/></clipPath></defs><g clip-path="url(#_clipPath_Bff0GZ71AdlcvnzJuaJoiiTuSTznb0HP)"><g opacity="0.1"><path d=" M 0 0 L 640 0 L 640 480 L 0 480 L 0 0 Z " fill="rgb(32,96,61)"/></g><g opacity="0.1"><path d=" M 0 0 L 640 0 L 640 360 L 0 360 L 0 0 Z " fill="rgb(250,210,1)"/></g><g opacity="0.1"><path d=" M 0 0 L 640 0 L 640 240 L 0 240 L 0 0 Z " fill="rgb(0,161,222)"/></g><g style="opacity:0.1;"><g><path d=" M 588.4 125.4 L 534.8 128.533 L 585.734 145.467 L 533.2 134.6 L 578.067 164.067 L 530.067 139.933 L 565.667 180.134 L 525.6 144.467 L 549.734 192.467 L 520.2 147.6 L 531 200.067 L 514.133 149.2 L 511 202.8 L 510.333 124.733 L 588.4 125.4 Z " fill="rgb(229,190,1)"/><path d=" M 588.4 125.4 L 534.8 122.267 L 585.734 105.333 L 533.2 116.2 L 578.067 86.733 L 530.067 110.867 L 565.667 70.666 L 525.6 106.333 L 549.734 58.333 L 520.2 103.2 L 531 50.733 L 514.133 101.6 L 511 48 L 510.333 126.067 L 588.4 125.4 Z " fill="rgb(229,190,1)"/></g><g><path d=" M 116.1 0 L 35.7 4.7 L 112.1 30.1 L 33.3 13.8 L 100.6 58 L 28.6 21.8 L 82 82.1 L 21.9 28.6 L 58.1 100.6 L 13.8 33.3 L 30 112 L 4.7 35.7 L 0 116.1 L -1 -1 L 116.1 0 Z " fill="rgb(229,190,1)"/><path d=" M 116.1 0 L 35.7 -4.7 L 112.1 -30.1 L 33.3 -13.8 L 100.6 -58 L 28.6 -21.8 L 82 -82.1 L 21.9 -28.6 L 58.1 -100.6 L 13.8 -33.3 L 30 -112 L 4.7 -35.7 L 0 -116.1 L -1 1 L 116.1 0 Z " fill="rgb(229,190,1)"/></g><circle vector-effect="non-scaling-stroke" cx="511" cy="125.4" r="22.866780999999975" fill="rgb(229,190,1)" stroke-width="2.267" stroke="rgb(0,161,222)" stroke-linejoin="miter" stroke-linecap="butt" stroke-miterlimit="4"/></g></g></svg>