<?xml version="1.0" standalone="no"?><!-- Generator: Gravit.io --><svg xmlns="http://www.w3.org/2000/svg" xmlns:xlink="http://www.w3.org/1999/xlink" style="isolation:isolate" viewBox="0 0 640 480" width="640" height="480"><defs><clipPath id="_clipPath_h2AuHUK4N1CwwWmaskMsL7EWALgKGbIy"><rect width="640" height="480"/></clipPath></defs><g clip-path="url(#_clipPath_h2AuHUK4N1CwwWmaskMsL7EWALgKGbIy)"><g opacity="0.1"><clipPath id="_clipPath_7aoOccuZ16xKpOfA7Rl1EwcT0PmOQ2Ff"><path d=" M 0 0 L 640 0 L 640 480 L 0 480 L 0 0 Z " fill="rgb(255,255,255)"/></clipPath><g clip-path="url(#_clipPath_7aoOccuZ16xKpOfA7Rl1EwcT0PmOQ2Ff)"><g><path d=" M -40 0 L 680 0 L 680 480 L -40 480 L -40 0 Z " fill-rule="evenodd" fill="rgb(0,153,255)"/><path d=" M -40 0 L 680 0 L -40 480 L -40 0 Z " fill-rule="evenodd" fill="rgb(0,153,0)"/><path d=" M -40 480 L 120 480 L 680 100 L 680 0 L 520 0 L -40 380 L -40 480 Z " fill-rule="evenodd" fill="rgb(0,0,0)"/><path d=" M -40 366 L 508.8 0 L 562.8 0 L -40 402 L -40 366 Z  M 77.2 480 L 680 78 L 680 114 L 131.2 480 L 77.2 480 Z " fill-rule="evenodd" fill="rgb(255,255,0)"/></g></g></g></g></svg>