<?xml version="1.0" standalone="no"?><!-- Generator: Gravit.io --><svg xmlns="http://www.w3.org/2000/svg" xmlns:xlink="http://www.w3.org/1999/xlink" style="isolation:isolate" viewBox="0 0 640 480" width="640" height="480"><defs><clipPath id="_clipPath_E18D5GMV4JkZAuCiYQjm1zzCr2964rDL"><rect width="640" height="480"/></clipPath></defs><g clip-path="url(#_clipPath_E18D5GMV4JkZAuCiYQjm1zzCr2964rDL)"><g opacity="0.1"><clipPath id="_clipPath_aOLxFCa0ygndXuTl9UaoworoGuqhuw8A"><path d=" M 0.031 0 L 639.969 0 L 639.969 480 L 0.031 480 L 0.031 0 Z " fill="rgb(255,255,255)"/></clipPath><g clip-path="url(#_clipPath_aOLxFCa0ygndXuTl9UaoworoGuqhuw8A)"><g><path d=" M -40 320.063 L 680 320.063 L 680 400.031 L -40 400.031 L -40 320.063 Z " fill-rule="evenodd" fill="rgb(255,231,0)"/><path d=" M -40 240 L 680 240 L 680 319.969 L -40 319.969 L -40 240 Z " fill-rule="evenodd" fill="rgb(0,0,0)"/><path d=" M -40 160.031 L 680 160.031 L 680 240 L -40 240 L -40 160.031 Z " fill-rule="evenodd" fill="rgb(222,57,8)"/><path d=" M -40 80.063 L 680 80.063 L 680 160.031 L -40 160.031 L -40 80.063 Z " fill-rule="evenodd" fill="rgb(255,231,0)"/><path d=" M -40 0 L 680 0 L 680 79.969 L -40 79.969 L -40 0 Z " fill-rule="evenodd" fill="rgb(0,0,0)"/><mask id="_mask_WvGwAKOaS2JJkyhesKlXL8VR933rGVGM" x="-200%" y="-200%" width="400%" height="400%"><rect x="-200%" y="-200%" width="400%" height="400%" style="fill:white;"/><path d=" M 394.719 240 C 394.719 281.266 361.266 314.719 320 314.719 C 278.734 314.719 245.281 281.266 245.281 240 C 245.281 198.734 278.734 165.281 320 165.281 C 361.266 165.281 394.719 198.734 394.719 240 L 394.719 240 Z " fill-rule="evenodd" fill="black" stroke="none"/></mask><path d=" M 394.719 240 C 394.719 281.266 361.266 314.719 320 314.719 C 278.734 314.719 245.281 281.266 245.281 240 C 245.281 198.734 278.734 165.281 320 165.281 C 361.266 165.281 394.719 198.734 394.719 240 L 394.719 240 Z " fill-rule="evenodd" fill="rgb(255,253,255)" mask="url(#_mask_WvGwAKOaS2JJkyhesKlXL8VR933rGVGM)" vector-effect="non-scaling-stroke" stroke-width="1.875" stroke="rgb(0,0,0)" stroke-linejoin="miter" stroke-linecap="butt" stroke-miterlimit="4"/><mask id="_mask_fVDToItdezyziWUodBxvJCDq78Net8jJ" x="-200%" y="-200%" width="400%" height="400%"><rect x="-200%" y="-200%" width="400%" height="400%" style="fill:white;"/><path d=" M 306.875 182.719 L 302 173.813 C 303.875 171.938 306.969 170.438 312.031 170.438 L 311.469 180.281 L 306.781 182.719 L 306.875 182.719 Z " fill-rule="evenodd" fill="black" stroke="none"/></mask><path d=" M 306.875 182.719 L 302 173.813 C 303.875 171.938 306.969 170.438 312.031 170.438 L 311.469 180.281 L 306.781 182.719 L 306.875 182.719 Z " fill-rule="evenodd" fill="rgb(222,49,8)" mask="url(#_mask_fVDToItdezyziWUodBxvJCDq78Net8jJ)" vector-effect="non-scaling-stroke" stroke-width="1.875" stroke="rgb(0,0,0)" stroke-linejoin="miter" stroke-linecap="butt" stroke-miterlimit="4"/><mask id="_mask_Dhlwp5w8JaUaW9LdfB1m21nI6Bg4q9IL" x="-200%" y="-200%" width="400%" height="400%"><rect x="-200%" y="-200%" width="400%" height="400%" style="fill:white;"/><path d=" M 311.563 180.281 L 312.219 170.438 C 312.219 170.438 322.25 169.875 327.688 176.438 L 322.344 184.125 L 311.469 180.375 L 311.563 180.281 Z " fill-rule="evenodd" fill="black" stroke="none"/></mask><path d=" M 311.563 180.281 L 312.219 170.438 C 312.219 170.438 322.25 169.875 327.688 176.438 L 322.344 184.125 L 311.469 180.375 L 311.563 180.281 Z " fill-rule="evenodd" fill="rgb(255,231,0)" mask="url(#_mask_Dhlwp5w8JaUaW9LdfB1m21nI6Bg4q9IL)" vector-effect="non-scaling-stroke" stroke-width="1.875" stroke="rgb(0,0,0)" stroke-linejoin="miter" stroke-linecap="butt" stroke-miterlimit="4"/><mask id="_mask_UpIjpRsD6FpsgeHABB3b9FWoSLdP9pDr" x="-200%" y="-200%" width="400%" height="400%"><rect x="-200%" y="-200%" width="400%" height="400%" style="fill:white;"/><path d=" M 322.438 184.031 L 327.406 176.344 C 330.688 179.813 332.094 182.25 332.563 186 C 332.656 186.094 324.781 187.969 324.781 187.875 L 322.438 184.031 L 322.438 184.031 Z " fill-rule="evenodd" fill="black" stroke="none"/></mask><path d=" M 322.438 184.031 L 327.406 176.344 C 330.688 179.813 332.094 182.25 332.563 186 C 332.656 186.094 324.781 187.969 324.781 187.875 L 322.438 184.031 L 322.438 184.031 Z " fill-rule="evenodd" fill="rgb(222,49,8)" mask="url(#_mask_UpIjpRsD6FpsgeHABB3b9FWoSLdP9pDr)" vector-effect="non-scaling-stroke" stroke-width="1.875" stroke="rgb(0,0,0)" stroke-linejoin="miter" stroke-linecap="butt" stroke-miterlimit="4"/><mask id="_mask_Xno56czRn7Zf4dIVtABkQnzDaEa5uxhl" x="-200%" y="-200%" width="400%" height="400%"><rect x="-200%" y="-200%" width="400%" height="400%" style="fill:white;"/><path d=" M 309.313 310.406 C 309.313 310.406 318.594 299.813 336.594 302.063 C 333.875 297.656 325.063 298.219 325.063 298.219 C 325.063 298.219 322.438 277.594 324.5 276.469 C 326.562 275.344 335.75 276.563 335.75 276.563 C 336.875 276.563 338.937 273.375 337.25 271.313 C 335.656 269.25 330.875 261.469 332.844 259.875 C 334.813 258.375 345.406 260.813 345.406 260.813 L 315.406 222.375 C 315.406 222.375 312.312 207.844 318.5 200.813 C 325.906 194.719 325.063 188.063 324.875 188.156 C 323.844 181.406 313.625 176.625 306.688 182.813 C 302.656 187.688 305.375 191.438 305.375 191.438 C 305.375 191.438 294.594 194.344 294.219 196.219 C 293.75 198.094 306.313 195.938 306.313 195.938 L 305.094 204.469 C 305.094 204.469 280.719 226.594 299.469 245.719 L 300.031 244.969 C 300.031 244.969 306.594 253.031 313.438 254.813 C 320 261.375 319.344 260.438 319.344 260.438 C 319.344 260.438 320.563 270.844 319.344 272.906 C 317.75 272.438 301.25 271.781 298.813 272.719 C 296.563 273.469 288.125 273 290.188 286.875 L 293.281 279.844 C 293.281 279.844 293 284.813 295.063 286.594 C 294.688 281.344 297.031 277.781 297.031 277.781 C 297.031 277.781 297.406 283.594 298.719 284.344 C 300.031 285.281 300.031 274.969 307.156 275.906 C 314.094 276.75 319.25 276.469 319.25 276.469 C 319.25 276.469 321.594 296.531 320.844 298.406 C 315.781 297.188 303.594 298.875 302.844 301.969 C 309.969 301.5 313.25 302.344 313.25 302.344 C 313.25 302.344 307.531 307.5 309.313 310.406 L 309.313 310.406 Z " fill-rule="evenodd" fill="black" stroke="none"/></mask><path d=" M 309.313 310.406 C 309.313 310.406 318.594 299.813 336.594 302.063 C 333.875 297.656 325.063 298.219 325.063 298.219 C 325.063 298.219 322.438 277.594 324.5 276.469 C 326.562 275.344 335.75 276.563 335.75 276.563 C 336.875 276.563 338.937 273.375 337.25 271.313 C 335.656 269.25 330.875 261.469 332.844 259.875 C 334.813 258.375 345.406 260.813 345.406 260.813 L 315.406 222.375 C 315.406 222.375 312.312 207.844 318.5 200.813 C 325.906 194.719 325.063 188.063 324.875 188.156 C 323.844 181.406 313.625 176.625 306.688 182.813 C 302.656 187.688 305.375 191.438 305.375 191.438 C 305.375 191.438 294.594 194.344 294.219 196.219 C 293.75 198.094 306.313 195.938 306.313 195.938 L 305.094 204.469 C 305.094 204.469 280.719 226.594 299.469 245.719 L 300.031 244.969 C 300.031 244.969 306.594 253.031 313.438 254.813 C 320 261.375 319.344 260.438 319.344 260.438 C 319.344 260.438 320.563 270.844 319.344 272.906 C 317.75 272.438 301.25 271.781 298.813 272.719 C 296.563 273.469 288.125 273 290.188 286.875 L 293.281 279.844 C 293.281 279.844 293 284.813 295.063 286.594 C 294.688 281.344 297.031 277.781 297.031 277.781 C 297.031 277.781 297.406 283.594 298.719 284.344 C 300.031 285.281 300.031 274.969 307.156 275.906 C 314.094 276.75 319.25 276.469 319.25 276.469 C 319.25 276.469 321.594 296.531 320.844 298.406 C 315.781 297.188 303.594 298.875 302.844 301.969 C 309.969 301.5 313.25 302.344 313.25 302.344 C 313.25 302.344 307.531 307.5 309.313 310.406 L 309.313 310.406 Z " fill-rule="evenodd" fill="rgb(0,0,0)" mask="url(#_mask_Xno56czRn7Zf4dIVtABkQnzDaEa5uxhl)" vector-effect="non-scaling-stroke" stroke-width="1.688" stroke="rgb(0,0,0)" stroke-linejoin="round" stroke-linecap="round" stroke-miterlimit="4"/><mask id="_mask_tE8syWv0iFmD9jXnQsv25qz4iK3OJ6ZF" x="-200%" y="-200%" width="400%" height="400%"><rect x="-200%" y="-200%" width="400%" height="400%" style="fill:white;"/><path d=" M 312.125 201.375 C 312.125 201.375 294.406 220.875 302.094 235.781 C 302.469 233.719 302.281 232.406 302.563 232.5 C 302.094 232.219 304.719 234.281 304.531 233.906 C 304.531 232.781 303.781 230.438 303.781 230.438 L 306.125 231.094 L 304.719 228.469 L 308.188 228.844 C 308.188 228.844 306.969 225.656 307.344 225.656 L 310.156 225.844 C 305.094 216.844 309.875 209.344 312.125 201.281 L 312.125 201.375 Z " fill-rule="evenodd" fill="black" stroke="none"/></mask><path d=" M 312.125 201.375 C 312.125 201.375 294.406 220.875 302.094 235.781 C 302.469 233.719 302.281 232.406 302.563 232.5 C 302.094 232.219 304.719 234.281 304.531 233.906 C 304.531 232.781 303.781 230.438 303.781 230.438 L 306.125 231.094 L 304.719 228.469 L 308.188 228.844 C 308.188 228.844 306.969 225.656 307.344 225.656 L 310.156 225.844 C 305.094 216.844 309.875 209.344 312.125 201.281 L 312.125 201.375 Z " fill-rule="evenodd" fill="rgb(156,166,156)" mask="url(#_mask_tE8syWv0iFmD9jXnQsv25qz4iK3OJ6ZF)" vector-effect="non-scaling-stroke" stroke-width="1.688" stroke="rgb(156,166,156)" stroke-linejoin="round" stroke-linecap="round" stroke-miterlimit="4"/><mask id="_mask_4qtRrM4YlD3AOzS7wNWkBpb9Fkd2Ht5p" x="-200%" y="-200%" width="400%" height="400%"><rect x="-200%" y="-200%" width="400%" height="400%" style="fill:white;"/><path d=" M 318.313 184.594 C 318.313 184.594 319.25 191.344 315.5 193.219 C 315.031 193.688 312.688 194.438 313.063 195.844 C 313.438 197.719 314.469 197.344 315.875 196.969 C 319.719 196.313 324.219 188.156 318.313 184.594 Z " fill-rule="evenodd" fill="black" stroke="none"/></mask><path d=" M 318.313 184.594 C 318.313 184.594 319.25 191.344 315.5 193.219 C 315.031 193.688 312.688 194.438 313.063 195.844 C 313.438 197.719 314.469 197.344 315.875 196.969 C 319.719 196.313 324.219 188.156 318.313 184.594 Z " fill-rule="evenodd" fill="rgb(156,166,156)" mask="url(#_mask_4qtRrM4YlD3AOzS7wNWkBpb9Fkd2Ht5p)" vector-effect="non-scaling-stroke" stroke-width="1.875" stroke="rgb(156,166,156)" stroke-linejoin="miter" stroke-linecap="butt" stroke-miterlimit="4"/><path d=" M 311.75 190.313 C 311.75 191.089 311.12 191.719 310.344 191.719 C 309.567 191.719 308.938 191.089 308.938 190.313 C 308.938 189.536 309.567 188.906 310.344 188.906 C 311.12 188.906 311.75 189.536 311.75 190.313 Z " fill-rule="evenodd" fill="rgb(255,255,255)"/><mask id="_mask_5HBmz1uM1696Qu38LYIvOsLtwUuvlAoD" x="-200%" y="-200%" width="400%" height="400%"><rect x="-200%" y="-200%" width="400%" height="400%" style="fill:white;"/><path d=" M 306.031 195.938 C 305.094 196.781 300.219 201.844 305.094 203.719 C 310.063 202.406 308.656 201.469 309.781 200.344 C 309.781 198 307.344 197.438 306.031 196.031 L 306.031 195.938 Z " fill-rule="evenodd" fill="black" stroke="none"/></mask><path d=" M 306.031 195.938 C 305.094 196.781 300.219 201.844 305.094 203.719 C 310.063 202.406 308.656 201.469 309.781 200.344 C 309.781 198 307.344 197.438 306.031 196.031 L 306.031 195.938 Z " fill-rule="evenodd" fill="rgb(222,49,8)" mask="url(#_mask_5HBmz1uM1696Qu38LYIvOsLtwUuvlAoD)" vector-effect="non-scaling-stroke" stroke-width="1.875" stroke="rgb(0,0,0)" stroke-linejoin="miter" stroke-linecap="butt" stroke-miterlimit="4"/><mask id="_mask_WXndlYCiiISsON4I5ABrq52eWxNZnZ07" x="-200%" y="-200%" width="400%" height="400%"><rect x="-200%" y="-200%" width="400%" height="400%" style="fill:white;"/><path d=" M 316.813 244.219 C 316.531 245.344 315.406 249.469 316.906 252.656 C 321.219 250.781 323.188 251.344 324.594 252.281 C 321.125 249.469 319.719 248.25 316.813 244.219 L 316.813 244.219 Z " fill-rule="evenodd" fill="black" stroke="none"/></mask><path d=" M 316.813 244.219 C 316.531 245.344 315.406 249.469 316.906 252.656 C 321.219 250.781 323.188 251.344 324.594 252.281 C 321.125 249.469 319.719 248.25 316.813 244.219 L 316.813 244.219 Z " fill-rule="evenodd" fill="rgb(156,166,156)" mask="url(#_mask_WXndlYCiiISsON4I5ABrq52eWxNZnZ07)" vector-effect="non-scaling-stroke" stroke-width="1.688" stroke="rgb(156,166,156)" stroke-linejoin="round" stroke-linecap="round" stroke-miterlimit="4"/><mask id="_mask_KqhKuVjoKMB8pJ4iNnoun3vG9D827EhK" x="-200%" y="-200%" width="400%" height="400%"><rect x="-200%" y="-200%" width="400%" height="400%" style="fill:white;"/><path d=" M 324.125 263.531 L 324.313 273.094 C 324.313 273.094 327.688 273.656 329.187 273.094 C 329.187 273.094 329.187 266.531 324.125 263.531 Z " fill-rule="evenodd" fill="black" stroke="none"/></mask><path d=" M 324.125 263.531 L 324.313 273.094 C 324.313 273.094 327.688 273.656 329.187 273.094 C 329.187 273.094 329.187 266.531 324.125 263.531 Z " fill-rule="evenodd" fill="rgb(255,255,255)" mask="url(#_mask_KqhKuVjoKMB8pJ4iNnoun3vG9D827EhK)" vector-effect="non-scaling-stroke" stroke-width="1.688" stroke="rgb(255,255,255)" stroke-linejoin="round" stroke-linecap="round" stroke-miterlimit="4"/><mask id="_mask_rR33j6k0tLU8LuaY6n92wYqLcDXNs80A" x="-200%" y="-200%" width="400%" height="400%"><rect x="-200%" y="-200%" width="400%" height="400%" style="fill:white;"/><path d=" M 348.125 264.75 C 348.125 264.75 342.031 249.937 326.375 246.187 C 326.375 246.187 312.781 225.75 314 224.719 C 314.75 223.312 315.219 221.062 319.719 223.219 C 324.219 225.375 345.031 235.781 348.031 236.344 C 351.031 236.906 348.406 265.125 348.219 264.75 L 348.125 264.75 Z " fill-rule="evenodd" fill="black" stroke="none"/></mask><path d=" M 348.125 264.75 C 348.125 264.75 342.031 249.937 326.375 246.187 C 326.375 246.187 312.781 225.75 314 224.719 C 314.75 223.312 315.219 221.062 319.719 223.219 C 324.219 225.375 345.031 235.781 348.031 236.344 C 351.031 236.906 348.406 265.125 348.219 264.75 L 348.125 264.75 Z " fill-rule="evenodd" fill="rgb(156,166,156)" mask="url(#_mask_rR33j6k0tLU8LuaY6n92wYqLcDXNs80A)" vector-effect="non-scaling-stroke" stroke-width="1.875" stroke="rgb(0,0,0)" stroke-linejoin="miter" stroke-linecap="butt" stroke-miterlimit="4"/><mask id="_mask_Yyr2rUo5mM40Xkq0bxSEnmhiZhHSLWHE" x="-200%" y="-200%" width="400%" height="400%"><rect x="-200%" y="-200%" width="400%" height="400%" style="fill:white;"/><path d=" M 333.313 246.094 C 333.031 246.281 354.219 258.656 347.844 269.25 C 353.844 265.219 351.969 258.281 351.969 258.281 C 351.969 258.281 356.844 271.125 344.844 277.406 C 346.156 278.531 347 278.344 347 278.344 L 344.937 280.313 C 344.937 280.313 344 281.906 352.063 277.969 C 349.906 279.75 349.719 281.063 349.719 281.063 C 349.719 281.063 350.281 282.75 355.531 278.156 C 351.313 282.75 350.375 285.094 350.375 285 C 361.906 284.063 386.938 246.563 342.5 235.594 L 344.469 237.656 L 333.219 246.094 L 333.313 246.094 Z " fill-rule="evenodd" fill="black" stroke="none"/></mask><path d=" M 333.313 246.094 C 333.031 246.281 354.219 258.656 347.844 269.25 C 353.844 265.219 351.969 258.281 351.969 258.281 C 351.969 258.281 356.844 271.125 344.844 277.406 C 346.156 278.531 347 278.344 347 278.344 L 344.937 280.313 C 344.937 280.313 344 281.906 352.063 277.969 C 349.906 279.75 349.719 281.063 349.719 281.063 C 349.719 281.063 350.281 282.75 355.531 278.156 C 351.313 282.75 350.375 285.094 350.375 285 C 361.906 284.063 386.938 246.563 342.5 235.594 L 344.469 237.656 L 333.219 246.094 L 333.313 246.094 Z " fill-rule="evenodd" fill="rgb(222,49,8)" mask="url(#_mask_Yyr2rUo5mM40Xkq0bxSEnmhiZhHSLWHE)" vector-effect="non-scaling-stroke" stroke-width="1.688" stroke="rgb(0,0,0)" stroke-linejoin="round" stroke-linecap="butt" stroke-miterlimit="4"/><mask id="_mask_Bbf83NwfRAPXCePZ1aqnFunD0uRqWNVP" x="-200%" y="-200%" width="400%" height="400%"><rect x="-200%" y="-200%" width="400%" height="400%" style="fill:white;"/><path d=" M 334.25 242.438 C 337.063 244.5 338.094 245.25 338.469 246.188 C 335.844 245.625 333.5 245.813 333.5 245.813 C 333.5 245.813 327.781 240.375 326.75 239.906 C 326 239.906 321.5 237.094 321.5 237.094 C 319.344 235.969 317.281 228.375 325.437 230.531 C 328.566 232.163 331.791 233.603 335.094 234.844 L 345.125 238.031 L 350.937 244.5 C 350.937 244.5 340.625 239.438 339.312 239.344 C 342.125 241.594 343.719 244.781 343.719 244.781 C 340.437 243.844 337.625 242.906 334.25 242.438 L 334.25 242.438 Z " fill-rule="evenodd" fill="black" stroke="none"/></mask><path d=" M 334.25 242.438 C 337.063 244.5 338.094 245.25 338.469 246.188 C 335.844 245.625 333.5 245.813 333.5 245.813 C 333.5 245.813 327.781 240.375 326.75 239.906 C 326 239.906 321.5 237.094 321.5 237.094 C 319.344 235.969 317.281 228.375 325.437 230.531 C 328.566 232.163 331.791 233.603 335.094 234.844 L 345.125 238.031 L 350.937 244.5 C 350.937 244.5 340.625 239.438 339.312 239.344 C 342.125 241.594 343.719 244.781 343.719 244.781 C 340.437 243.844 337.625 242.906 334.25 242.438 L 334.25 242.438 Z " fill-rule="evenodd" fill="rgb(255,255,255)" mask="url(#_mask_Bbf83NwfRAPXCePZ1aqnFunD0uRqWNVP)" vector-effect="non-scaling-stroke" stroke-width="1.688" stroke="rgb(0,0,0)" stroke-linejoin="round" stroke-linecap="round" stroke-miterlimit="4"/><mask id="_mask_1uI6u7sw6qBkEMM7FWOYH6jmzvF9gguC" x="-200%" y="-200%" width="400%" height="400%"><rect x="-200%" y="-200%" width="400%" height="400%" style="fill:white;"/><path d=" M 294.125 196.781 C 294.125 196.781 303.969 194.344 305.188 194.719" fill="black" stroke="none"/></mask><path d=" M 294.125 196.781 C 294.125 196.781 303.969 194.344 305.188 194.719" fill="none" mask="url(#_mask_1uI6u7sw6qBkEMM7FWOYH6jmzvF9gguC)" vector-effect="non-scaling-stroke" stroke-width="1.688" stroke="rgb(255,255,255)" stroke-linejoin="miter" stroke-linecap="round" stroke-miterlimit="4"/><path d=" M -40 400.031 L 680 400.031 L 680 480 L -40 480 L -40 400.031 Z " fill-rule="evenodd" fill="rgb(222,57,8)"/></g></g></g></g></svg>