<?xml version="1.0" standalone="no"?><!-- Generator: Gravit.io --><svg xmlns="http://www.w3.org/2000/svg" xmlns:xlink="http://www.w3.org/1999/xlink" style="isolation:isolate" viewBox="0 0 640 512" width="640" height="512"><defs><clipPath id="_clipPath_sYrD37s8ncpYTYIecUoTrA0BYaTWxTas"><rect width="640" height="512"/></clipPath></defs><g clip-path="url(#_clipPath_sYrD37s8ncpYTYIecUoTrA0BYaTWxTas)"><path d=" M 616 192 L 480 192 L 480 24 C 480 10.74 469.26 0 456 0 L 312 0 C 298.74 0 288 10.74 288 24 L 288 96 L 224 96 L 224 16 C 224 7.16 216.84 0 208 0 L 192 0 C 183.16 0 176 7.16 176 16 L 176 96 L 112 96 L 112 16 C 112 7.16 104.84 0 96 0 L 80 0 C 71.16 0 64 7.16 64 16 L 64 96 L 24 96 C 10.74 96 0 106.74 0 120 L 0 480 C 0 497.67 14.33 512 32 512 L 608 512 C 625.67 512 640 497.67 640 480 L 640 216 C 640 202.74 629.25 192 616 192 Z  M 128 404 C 128 410.63 122.63 416 116 416 L 76 416 C 69.37 416 64 410.63 64 404 L 64 364 C 64 357.37 69.37 352 76 352 L 116 352 C 122.63 352 128 357.37 128 364 L 128 404 L 128 404 Z  M 128 308 C 128 314.63 122.63 320 116 320 L 76 320 C 69.37 320 64 314.63 64 308 L 64 268 C 64 261.37 69.37 256 76 256 L 116 256 C 122.63 256 128 261.37 128 268 L 128 308 L 128 308 Z  M 128 212 C 128 218.63 122.63 224 116 224 L 76 224 C 69.37 224 64 218.63 64 212 L 64 172 C 64 165.37 69.37 160 76 160 L 116 160 C 122.63 160 128 165.37 128 172 L 128 212 L 128 212 Z  M 256 404 C 256 410.63 250.63 416 244 416 L 204 416 C 197.37 416 192 410.63 192 404 L 192 364 C 192 357.37 197.37 352 204 352 L 244 352 C 250.63 352 256 357.37 256 364 L 256 404 L 256 404 Z  M 256 308 C 256 314.63 250.63 320 244 320 L 204 320 C 197.37 320 192 314.63 192 308 L 192 268 C 192 261.37 197.37 256 204 256 L 244 256 C 250.63 256 256 261.37 256 268 L 256 308 L 256 308 Z  M 256 212 C 256 218.63 250.63 224 244 224 L 204 224 C 197.37 224 192 218.63 192 212 L 192 172 C 192 165.37 197.37 160 204 160 L 244 160 C 250.63 160 256 165.37 256 172 L 256 212 L 256 212 Z  M 416 308 C 416 314.63 410.63 320 404 320 L 364 320 C 357.37 320 352 314.63 352 308 L 352 268 C 352 261.37 357.37 256 364 256 L 404 256 C 410.63 256 416 261.37 416 268 L 416 308 L 416 308 Z  M 416 212 C 416 218.63 410.63 224 404 224 L 364 224 C 357.37 224 352 218.63 352 212 L 352 172 C 352 165.37 357.37 160 364 160 L 404 160 C 410.63 160 416 165.37 416 172 L 416 212 L 416 212 Z  M 416 116 C 416 122.63 410.63 128 404 128 L 364 128 C 357.37 128 352 122.63 352 116 L 352 76 C 352 69.37 357.37 64 364 64 L 404 64 C 410.63 64 416 69.37 416 76 L 416 116 L 416 116 Z  M 576 404 C 576 410.63 570.63 416 564 416 L 524 416 C 517.37 416 512 410.63 512 404 L 512 364 C 512 357.37 517.37 352 524 352 L 564 352 C 570.63 352 576 357.37 576 364 L 576 404 L 576 404 Z  M 576 308 C 576 314.63 570.63 320 564 320 L 524 320 C 517.37 320 512 314.63 512 308 L 512 268 C 512 261.37 517.37 256 524 256 L 564 256 C 570.63 256 576 261.37 576 268 L 576 308 L 576 308 Z " fill="rgb(98,98,98)"/></g></svg>