<?xml version="1.0" standalone="no"?><!-- Generator: Gravit.io --><svg xmlns="http://www.w3.org/2000/svg" xmlns:xlink="http://www.w3.org/1999/xlink" style="isolation:isolate" viewBox="0 0 512 512" width="512" height="512"><defs><clipPath id="_clipPath_d23MBIr79rYyN1ok44deDhJIFKkDd5uP"><rect width="512" height="512"/></clipPath></defs><g clip-path="url(#_clipPath_d23MBIr79rYyN1ok44deDhJIFKkDd5uP)"><path d=" M 251.64 354.55 C 250.24 354.55 163.64 474.45 162.94 474.45 C 162.24 474.45 76.34 414 76 413.25 C 75.66 412.5 162.6 287.55 162.6 285.85 C 162.6 283.65 33 241.85 25 238.75 C 23.7 238.25 56.4 136.95 56.7 136.65 C 57.3 135.95 201.1 183.65 202.2 183.65 C 202.6 183.65 203.1 183.05 203.2 182.35 C 203.6 180.35 204.2 33.75 204.9 32.75 C 205.7 31.55 309.4 32.05 310 32.45 C 311.5 33.45 313.5 188.55 316.1 188.55 C 317.5 188.55 454.8 141.55 455.4 142.25 C 456.2 143.15 487.3 244.45 486.9 244.85 C 486 245.75 346.7 291.95 346.3 293.65 C 346 295.05 429.1 415.75 428.8 416.55 C 428.5 417.35 343.3 480.05 342.5 480.05 C 341.5 479.85 253.5 354.55 251.6 354.55 L 251.64 354.55 Z " fill="rgb(0,111,53)"/></g></svg>