<?xml version="1.0" standalone="no"?><!-- Generator: Gravit.io --><svg xmlns="http://www.w3.org/2000/svg" xmlns:xlink="http://www.w3.org/1999/xlink" style="isolation:isolate" viewBox="0 0 448 512" width="448" height="512"><defs><clipPath id="_clipPath_rv9DgerdI12KGIyFpGGmsVg9U3AzB75n"><rect width="448" height="512"/></clipPath></defs><g clip-path="url(#_clipPath_rv9DgerdI12KGIyFpGGmsVg9U3AzB75n)"><path d=" M 448 344 L 448 456 C 448.016 462.37 445.493 468.484 440.988 472.988 C 436.484 477.493 430.37 480.016 424 480 L 312 480 C 290.61 480 279.91 454.1 295 439 L 331.2 402.8 L 224 295.6 L 116.77 402.9 L 153 439 C 168.09 454.1 157.39 480 136 480 L 24 480 C 17.63 480.016 11.516 477.493 7.012 472.988 C 2.507 468.484 -0.016 462.37 0 456 L 0 344 C 0 322.6 25.89 311.9 41 327 L 77.19 363.2 L 184.46 256 L 77.18 148.7 L 41 185 C 25.9 200.1 0 189.4 0 168 L 0 56 C -0.016 49.63 2.507 43.516 7.012 39.012 C 11.516 34.507 17.63 31.984 24 32 L 136 32 C 157.39 32 168.09 57.9 153 73 L 116.8 109.2 L 224 216.4 L 331.23 109.1 L 295 73 C 279.91 57.9 290.61 32 312 32 L 424 32 C 430.37 31.984 436.484 34.507 440.988 39.012 C 445.493 43.516 448.016 49.63 448 56 L 448 168 C 448 189.4 422.11 200.1 407 185 L 370.81 148.8 L 263.54 256 L 370.82 363.3 L 407 327.1 C 422.1 311.9 448 322.6 448 344 Z " fill="rgb(0,4,255)"/></g></svg>